<svg width="50" height="50" viewBox="0 0 50 50" fill="none" xmlns="http://www.w3.org/2000/svg">
<path d="M45.8656 38.7756C41.3913 45.5391 33.7166 50.0001 25 50.0001C11.1929 50.0001 0 38.8072 0 25.0001C0 16.487 4.2551 8.96774 10.7545 4.45312C11.2775 5.71248 11.8404 6.95103 12.4418 8.16721C7.31736 11.9965 4 18.1109 4 25.0001C4 36.5981 13.402 46.0001 25 46.0001C32.0601 46.0001 38.3065 42.516 42.1137 37.1735C43.3431 37.7469 44.5942 38.2814 45.8656 38.7756Z" fill="#484D9C"/>
<path d="M24.8586 25.2402L21.9962 28.2515L17.8191 24.7037C16.9772 23.9887 15.7151 24.0915 15 24.9334C14.285 25.7753 14.3878 27.0374 15.2297 27.7525L20.9244 32.5892C21.6904 33.2398 22.8312 33.1789 23.5236 32.4504L27.8096 27.9414C26.7973 27.0724 25.8131 26.1714 24.8586 25.2402Z" fill="#484D9C"/>
<path d="M45.865 38.7759C48.4781 34.8259 49.9996 30.0907 49.9996 25C49.9996 11.1929 38.8067 0 24.9996 0C19.7055 0 14.7957 1.6456 10.7539 4.45319C11.2769 5.71255 11.8398 6.95111 12.4412 8.1673C15.9438 5.54986 20.2907 4 24.9996 4C36.5976 4 45.9996 13.402 45.9996 25C45.9996 29.538 44.5602 33.7398 42.113 37.1738C43.3424 37.7472 44.5936 38.2817 45.865 38.7759Z" fill="#FD634E"/>
<path d="M27.809 27.9417L34.5713 20.8275C35.3323 20.0269 35.3002 18.761 34.4996 18C33.6991 17.239 32.4331 17.2711 31.6721 18.0717L24.8579 25.2404C25.8124 26.1716 26.7966 27.0726 27.809 27.9417Z" fill="#FD634E"/>
</svg>
