<svg width="22" height="22" viewBox="0 0 22 22" fill="none" xmlns="http://www.w3.org/2000/svg">
<path fill-rule="evenodd" clip-rule="evenodd" d="M11 22C17.0751 22 22 17.0751 22 11C22 4.92487 17.0751 0 11 0C4.92487 0 0 4.92487 0 11C0 17.0751 4.92487 22 11 22ZM10 7C10 6.44775 10.4477 6 11 6C11.5523 6 12 6.44775 12 7V10H15C15.5523 10 16 10.4478 16 11C16 11.5522 15.5523 12 15 12H12V15C12 15.5522 11.5523 16 11 16C10.4477 16 10 15.5522 10 15V12H7C6.44769 12 6 11.5522 6 11C6 10.4478 6.44769 10 7 10H10V7Z" fill="#FC6053"/>
</svg>
