<svg width="66" height="73" viewBox="0 0 66 73" fill="none" xmlns="http://www.w3.org/2000/svg">
<path fill-rule="evenodd" clip-rule="evenodd" d="M0 73V0H66V73H0ZM3 3H63V44H3V3ZM3 47V70H63V47H3Z" fill="#FD634E"/>
<path fill-rule="evenodd" clip-rule="evenodd" d="M26 13L43 23L26 33L26 13ZM29 18.2453L37.0831 23L29 27.7548V18.2453Z" fill="white"/>
<path d="M10 55.5C10 54.6714 10.6716 54 11.5 54C12.3284 54 13 54.6714 13 55.5V61.5C13 62.3286 12.3284 63 11.5 63C10.6716 63 10 62.3286 10 61.5V55.5Z" fill="white"/>
<path d="M16.5 54C15.6716 54 15 54.6714 15 55.5V61.5C15 62.3286 15.6716 63 16.5 63C17.3284 63 18 62.3286 18 61.5V55.5C18 54.6714 17.3284 54 16.5 54Z" fill="white"/>
<path d="M31 55.5C31 54.6714 31.6716 54 32.5 54C33.3284 54 34 54.6714 34 55.5V57H54.5C55.3284 57 56 57.6714 56 58.5C56 59.3286 55.3284 60 54.5 60H34V61.5C34 62.3286 33.3284 63 32.5 63C31.6716 63 31 62.3286 31 61.5V60H26.5C25.6716 60 25 59.3286 25 58.5C25 57.6714 25.6716 57 26.5 57H31V55.5Z" fill="white"/>
</svg>
