<svg width="10" height="16" viewBox="0 0 10 16" fill="none" xmlns="http://www.w3.org/2000/svg">
<path fill-rule="evenodd" clip-rule="evenodd" d="M9.96307 8.34274C9.888 8.71311 9.69662 9.05043 9.41633 9.30636C9.40248 9.31932 9.38403 9.32313 9.36942 9.33533L3.39059 15.4632C3.00579 15.8087 2.50518 16 1.98604 16C1.4669 16 0.966294 15.8087 0.581494 15.4632C0.398447 15.2996 0.252104 15.0997 0.151934 14.8764C0.0517646 14.6531 0 14.4115 0 14.1672C0 13.9228 0.0517646 13.6812 0.151934 13.458C0.252104 13.2347 0.398447 13.0348 0.581494 12.8712L5.33303 8.00043L0.5838 3.13809C0.400669 2.97372 0.254304 2.77313 0.154134 2.54925C0.0539643 2.32538 0.00221181 2.08318 0.00221181 1.83827C0.00221181 1.59335 0.0539643 1.35116 0.154134 1.12729C0.254304 0.90341 0.400669 0.702821 0.5838 0.538443C0.967663 0.192002 1.46809 0 1.9872 0C2.5063 0 3.00672 0.192002 3.39059 0.538443L9.37711 6.66401C9.39019 6.67469 9.40633 6.6785 9.41864 6.68918C9.64701 6.89376 9.81741 7.15401 9.91292 7.44409C10.0084 7.73417 10.0257 8.04398 9.96307 8.34274Z" fill="#FD634E"/>
</svg>
