<svg width="50" height="50" viewBox="0 0 50 50" fill="none" xmlns="http://www.w3.org/2000/svg">
<path d="M36 33.8967V48C36 49.1046 36.8954 50 38 50H48C49.1046 50 50 49.1046 50 48V42.5131C48.9842 42.0787 47.9838 41.6151 47 41.1234V47H39V36.2483C37.973 35.4979 36.9724 34.7136 36 33.8967Z" fill="#484D9C"/>
<path d="M16.7195 0H12C10.8954 0 10 0.895386 10 2V21C10 22.1046 10.8954 23 12 23H26.0377C25.3558 22.0223 24.7042 21.0219 24.0844 20H13V3H17.2889C17.0726 2.00952 16.8826 1.00928 16.7195 0Z" fill="#484D9C"/>
<path d="M18.3192 7H17.5C16.6716 7 16 7.67163 16 8.5C16 9.32837 16.6716 10 17.5 10H19.3057C18.9496 9.01257 18.6205 8.01233 18.3192 7Z" fill="#484D9C"/>
<path d="M20.4869 13H17.5C16.6716 13 16 13.6716 16 14.5C16 15.3284 16.6716 16 17.5 16H21.8766C21.3849 15.0161 20.9213 14.0157 20.4869 13Z" fill="#484D9C"/>
<path d="M5 36.5C5 35.6716 5.67157 35 6.5 35H7.5C8.32843 35 9 35.6716 9 36.5C9 37.3284 8.32843 38 7.5 38H6.5C5.67157 38 5 37.3284 5 36.5Z" fill="#484D9C"/>
<path d="M5 41.5C5 40.6716 5.67157 40 6.5 40H7.5C8.32843 40 9 40.6716 9 41.5C9 42.3284 8.32843 43 7.5 43H6.5C5.67157 43 5 42.3284 5 41.5Z" fill="#484D9C"/>
<path fill-rule="evenodd" clip-rule="evenodd" d="M0 31C0 29.8954 0.895447 29 2 29H12C13.1046 29 14 29.8954 14 31V48C14 49.1046 13.1046 50 12 50H2C0.895447 50 0 49.1046 0 48V31ZM3 47V32H11V47H3Z" fill="#484D9C"/>
<path d="M24.5 35C23.6716 35 23 35.6716 23 36.5C23 37.3284 23.6716 38 24.5 38H25.5C26.3284 38 27 37.3284 27 36.5C27 35.6716 26.3284 35 25.5 35H24.5Z" fill="#484D9C"/>
<path d="M23 41.5C23 40.6716 23.6716 40 24.5 40H25.5C26.3284 40 27 40.6716 27 41.5C27 42.3284 26.3284 43 25.5 43H24.5C23.6716 43 23 42.3284 23 41.5Z" fill="#484D9C"/>
<path fill-rule="evenodd" clip-rule="evenodd" d="M18 31C18 29.8954 18.8954 29 20 29H30C31.1046 29 32 29.8954 32 31V48C32 49.1046 31.1046 50 30 50H20C18.8954 50 18 49.1046 18 48V31ZM21 47V32H29V47H21Z" fill="#484D9C"/>
<path d="M42.5 40C41.6716 40 41 40.6716 41 41.5C41 42.3284 41.6716 43 42.5 43H43.5C44.3284 43 45 42.3284 45 41.5C45 40.6716 44.3284 40 43.5 40H42.5Z" fill="#484D9C"/>
<path d="M26.0378 23H38.0003C39.1049 23 40.0003 22.1046 40.0003 21V2C40.0003 0.895386 39.1049 0 38.0003 0H16.7197C16.8828 1.00928 17.0728 2.00952 17.289 3H37.0003V20H24.0845C24.7043 21.0219 25.3559 22.0223 26.0378 23Z" fill="#FC6053"/>
<path d="M50.0003 42.5132V31C50.0003 29.8954 49.1049 29 48.0003 29H38.0003C36.8958 29 36.0003 29.8954 36.0003 31V33.8969C36.9727 34.7137 37.9733 35.4982 39.0003 36.2485V32H47.0003V41.1237C47.9841 41.6154 48.9845 42.0789 50.0003 42.5132Z" fill="#FC6053"/>
<path d="M21.8767 16H27.5003C28.3287 16 29.0003 15.3284 29.0003 14.5C29.0003 13.6716 28.3287 13 27.5003 13H20.4871C20.9214 14.0157 21.3851 15.0161 21.8767 16Z" fill="#FC6053"/>
<path d="M19.3058 10H20.5003C21.3287 10 22.0003 9.32837 22.0003 8.5C22.0003 7.67163 21.3287 7 20.5003 7H18.3193C18.6206 8.01233 18.9498 9.01257 19.3058 10Z" fill="#FC6053"/>
<path d="M24.0003 8.5C24.0003 7.67163 24.6719 7 25.5003 7H32.5003C33.3287 7 34.0003 7.67163 34.0003 8.5C34.0003 9.32837 33.3287 10 32.5003 10H25.5003C24.6719 10 24.0003 9.32837 24.0003 8.5Z" fill="#FC6053"/>
<path d="M41.0003 36.5C41.0003 35.6716 41.6719 35 42.5003 35H43.5003C44.3287 35 45.0003 35.6716 45.0003 36.5C45.0003 37.3284 44.3287 38 43.5003 38H42.5003C41.6719 38 41.0003 37.3284 41.0003 36.5Z" fill="#FC6053"/>
</svg>
