<svg width="50" height="51" viewBox="0 0 50 51" fill="none" xmlns="http://www.w3.org/2000/svg">
<path fill-rule="evenodd" clip-rule="evenodd" d="M8.11261 4.13977C8.04108 3.14893 8.00323 2.14868 8 1.14038L29.0918 0.99585L38.9998 10.3534V20.5C38.9998 21.3284 38.3282 22 37.4998 22C36.6713 22 35.9998 21.3284 35.9998 20.5V14H29.4998C28.119 14 26.9998 12.8807 26.9998 11.5V4.01025L8.11261 4.13977ZM35.3152 11L29.9998 5.97986V11H35.3152Z" fill="#FD634E"/>
<path d="M27.9998 37.3384V32C27.9998 31.4478 27.5521 31 26.9998 31H20.1938C21.2204 32.054 22.3006 33.0554 23.43 34H24.9998V35.2521C25.9684 35.9885 26.9692 36.6847 27.9998 37.3384Z" fill="#FD634E"/>
<path d="M38.9998 42.3032V27C38.9998 26.4478 38.5521 26 37.9998 26H30.9998C30.4474 26 29.9998 26.4478 29.9998 27V38.5321C30.9768 39.08 31.9775 39.5908 32.9998 40.0626V29H35.9998V41.3113C36.9832 41.6774 37.9838 42.0085 38.9998 42.3032Z" fill="#FD634E"/>
<path d="M49.9998 43.9886V22C49.9998 21.4478 49.5521 21 48.9998 21H41.9998C41.4474 21 40.9998 21.4478 40.9998 22V42.8312C41.987 43.0663 42.9874 43.2673 43.9998 43.4331V24H46.9998V43.8164C47.9904 43.9078 48.9908 43.9656 49.9998 43.9886Z" fill="#FD634E"/>
<path d="M16.0099 26C15.3152 25.0293 14.6598 24.0286 14.0461 23H17.4998C18.3282 23 18.9998 23.6716 18.9998 24.5C18.9998 25.3284 18.3282 26 17.4998 26H16.0099Z" fill="#FD634E"/>
<path fill-rule="evenodd" clip-rule="evenodd" d="M12.9242 21C11.1724 17.6718 9.84412 14.0859 9.01117 10.314C9.10278 9.57336 9.73431 9 10.4998 9H15.9998C19.3135 9 21.9998 11.6863 21.9998 15C21.9998 18.3137 19.3135 21 15.9998 21H12.9242ZM15.9998 12H11.9998V18H15.9998C17.6566 18 18.9998 16.6569 18.9998 15C18.9998 13.3431 17.6566 12 15.9998 12Z" fill="#FD634E"/>
<path fill-rule="evenodd" clip-rule="evenodd" d="M7.99976 1.14038L2.48285 1.17822C1.10889 1.18762 0 2.3042 0 3.67822V48.4999C0 49.8806 1.11926 50.9999 2.5 50.9999H8.98578L9 51H16C16.5523 51 17 50.5522 17 50V37C17 36.4478 16.5523 36 16 36H9C8.44769 36 8 36.4478 8 37V47.9999H3V4.1748L8.11237 4.13977C8.04089 3.14893 8.00299 2.14868 7.99976 1.14038ZM11 39V48H14V39H11Z" fill="#484D9C"/>
<path d="M9.01123 10.3154C9.00378 10.376 9 10.4375 9 10.5V18H8.5C7.67157 18 7 18.6716 7 19.5C7 20.3284 7.67157 21 8.5 21H9V23H8.5C7.67157 23 7 23.6716 7 24.5C7 25.3284 7.67157 26 8.5 26H9V27.5C9 28.3284 9.67157 29 10.5 29C11.3284 29 12 28.3284 12 27.5V26H16.0096C15.3149 25.0293 14.6595 24.0286 14.0458 23H12V21H12.9239C11.1723 17.6722 9.84418 14.0868 9.01123 10.3154Z" fill="#484D9C"/>
<path d="M20.1935 31H20C19.4477 31 19 31.4478 19 32V50C19 50.5522 19.4477 51 20 51H27C27.5523 51 28 50.5522 28 50V37.3387C26.9695 36.6852 25.9686 35.9889 25 35.2524V48H22V34H23.4297C22.3003 33.0554 21.2201 32.054 20.1935 31Z" fill="#484D9C"/>
<path d="M30 38.5325V50C30 50.5522 30.4477 51 31 51H38C38.5523 51 39 50.5522 39 50V42.3035C37.984 42.0088 36.9835 41.6777 36 41.3116V48H33V40.063C31.9777 39.5912 30.9771 39.0803 30 38.5325Z" fill="#484D9C"/>
<path d="M41 42.8314V50C41 50.5522 41.4477 51 42 51H49C49.5523 51 50 50.5522 50 50V43.9888C48.991 43.9657 47.9907 43.908 47 43.8165V48H44V43.4332C42.9877 43.2675 41.9872 43.0665 41 42.8314Z" fill="#484D9C"/>
</svg>
