<svg width="50" height="50" viewBox="0 0 50 50" fill="none" xmlns="http://www.w3.org/2000/svg">
<path d="M36 36.7507V37.5C36 38.3284 35.3284 39 34.5 39C33.6716 39 33 38.3284 33 37.5V33.7507L36 36.7507Z" fill="#343A91"/>
<path d="M11.1242 11.875C8.09363 13.3232 6 16.4171 6 20V24C6 28.9706 10.0294 33 15 33C19.7275 33 23.6036 29.3551 23.9714 24.7222L21 21.7507V24C21 27.3137 18.3137 30 15 30C11.6863 30 9 27.3137 9 24V20C9 17.2219 10.8881 14.8846 13.4511 14.2018L11.1242 11.875Z" fill="#343A91"/>
<path fill-rule="evenodd" clip-rule="evenodd" d="M0 49C0 49.5522 0.447693 50 1 50H29C29.5523 50 30 49.5522 30 49C30 41.8203 24.1797 36 17 36H13C5.82031 36 0 41.8203 0 49ZM3.20001 47C4.12659 42.4355 8.16211 39 13 39H17C21.8379 39 25.8734 42.4355 26.8 47H3.20001Z" fill="#343A91"/>
<path d="M23.9713 24.7222C23.9902 24.4839 23.9998 24.2432 23.9998 24V14.5C23.9998 12.567 22.4328 11 20.4998 11H14.9998C13.6121 11 12.2978 11.3141 11.124 11.875L13.4509 14.2018C13.9451 14.0701 14.4642 14 14.9998 14H20.4998C20.7759 14 20.9998 14.2239 20.9998 14.5V21.7507L23.9713 24.7222Z" fill="#FC6053"/>
<path fill-rule="evenodd" clip-rule="evenodd" d="M35.9998 36.7507L32.9998 33.7507V31C31.343 31 29.9998 29.6569 29.9998 28V23C29.9998 21.3431 31.343 20 32.9998 20V1.5C32.9998 0.671631 33.6714 0 34.4998 0C35.3282 0 35.9998 0.671631 35.9998 1.5V20C37.6567 20 38.9998 21.3431 38.9998 23V28C38.9998 29.6569 37.6567 31 35.9998 31V36.7507ZM35.9998 28V23H32.9998V28H35.9998Z" fill="#FC6053"/>
<path fill-rule="evenodd" clip-rule="evenodd" d="M45.4998 0C44.6714 0 43.9998 0.671631 43.9998 1.5V8C42.343 8 40.9998 9.34314 40.9998 11V16C40.9998 17.6569 42.343 19 43.9998 19V37.5C43.9998 38.3284 44.6714 39 45.4998 39C46.3282 39 46.9998 38.3284 46.9998 37.5V19C48.6567 19 49.9998 17.6569 49.9998 16V11C49.9998 9.34314 48.6567 8 46.9998 8V1.5C46.9998 0.671631 46.3282 0 45.4998 0ZM43.9998 16V11H46.9998V16H43.9998Z" fill="#FC6053"/>
</svg>
