<svg width="50" height="50" viewBox="0 0 50 50" fill="none" xmlns="http://www.w3.org/2000/svg">
<path d="M7.46545 3.68103L0.91687 9.03894C0.336548 9.51379 0 10.224 0 10.9739V47.5C0 48.8807 1.11926 50 2.5 50H35.5C36.8807 50 38 48.8807 38 47.5V43.2771C36.0951 42.2825 34.2509 41.1879 32.4741 40H28V36.6973C26.9709 35.861 25.9703 34.991 25 34.0889V40C25 41.6569 26.3431 43 28 43H35V47H3V14H10.8213C10.3967 13.0135 9.99805 12.0132 9.62622 11H3.25769L8.2854 6.88647C7.98328 5.82971 7.70972 4.76086 7.46545 3.68103Z" fill="#484D9C"/>
<path d="M17.0179 25H8.5C7.67163 25 7 25.6716 7 26.5C7 27.3284 7.67163 28 8.5 28H19.3027C18.5104 27.0251 17.7484 26.0247 17.0179 25Z" fill="#484D9C"/>
<path d="M8.5 30C7.67163 30 7 30.6716 7 31.5C7 32.3284 7.67163 33 8.5 33H19.5C20.3284 33 21 32.3284 21 31.5C21 30.6716 20.3284 30 19.5 30H8.5Z" fill="#484D9C"/>
<path d="M8.5 35C7.67163 35 7 35.6716 7 36.5C7 37.3284 7.67163 38 8.5 38H13.5C14.3284 38 15 37.3284 15 36.5C15 35.6716 14.3284 35 13.5 35H8.5Z" fill="#484D9C"/>
<path d="M37.9998 43.2773V43H46.9998C48.6566 43 49.9998 41.6569 49.9998 40V14C49.9998 12.3431 48.6566 11 46.9998 11H35.9998V2.5C35.9998 1.11926 34.8805 0 33.4998 0H12.8567C12.2797 0 11.7203 0.199707 11.2737 0.565063L7.46484 3.68127C7.70911 4.76111 7.98267 5.82996 8.28479 6.88672L11.9998 3.84717V11H9.62561C9.99744 12.0132 10.396 13.0135 10.8206 14H12.4998C13.8805 14 14.9998 12.8807 14.9998 11.5V3H32.9998V11H27.9998C26.3429 11 24.9998 12.3431 24.9998 14V34.0894C25.9701 34.9913 26.9707 35.8615 27.9998 36.6978V14H46.9998V40H32.4733C34.2502 41.188 36.0947 42.2827 37.9998 43.2773Z" fill="#FC6053"/>
<path d="M19.302 28H19.4998C20.3281 28 20.9998 27.3284 20.9998 26.5C20.9998 25.6716 20.3281 25 19.4998 25H17.0172C17.7477 26.0247 18.5096 27.0251 19.302 28Z" fill="#FC6053"/>
<path fill-rule="evenodd" clip-rule="evenodd" d="M29.9998 17C29.9998 16.4478 30.4475 16 30.9998 16H43.9998C44.552 16 44.9998 16.4478 44.9998 17V24C44.9998 24.5522 44.552 25 43.9998 25H30.9998C30.4475 25 29.9998 24.5522 29.9998 24V17ZM32.9998 22V19H41.9998V22H32.9998Z" fill="#FC6053"/>
<path d="M36.9998 35C36.4475 35 35.9998 35.4478 35.9998 36V37C35.9998 37.5522 36.4475 38 36.9998 38H37.9998C38.552 38 38.9998 37.5522 38.9998 37V36C38.9998 35.4478 38.552 35 37.9998 35H36.9998Z" fill="#FC6053"/>
<path d="M42.9998 35C42.4475 35 41.9998 35.4478 41.9998 36V37C41.9998 37.5522 42.4475 38 42.9998 38H43.9998C44.552 38 44.9998 37.5522 44.9998 37V36C44.9998 35.4478 44.552 35 43.9998 35H42.9998Z" fill="#FC6053"/>
<path d="M30.9998 35C30.4475 35 29.9998 35.4478 29.9998 36V37C29.9998 37.5522 30.4475 38 30.9998 38H31.9998C32.552 38 32.9998 37.5522 32.9998 37V36C32.9998 35.4478 32.552 35 31.9998 35H30.9998Z" fill="#FC6053"/>
<path d="M36.9998 31C36.4475 31 35.9998 31.4478 35.9998 32V33C35.9998 33.5522 36.4475 34 36.9998 34H37.9998C38.552 34 38.9998 33.5522 38.9998 33V32C38.9998 31.4478 38.552 31 37.9998 31H36.9998Z" fill="#FC6053"/>
<path d="M42.9998 31C42.4475 31 41.9998 31.4478 41.9998 32V33C41.9998 33.5522 42.4475 34 42.9998 34H43.9998C44.552 34 44.9998 33.5522 44.9998 33V32C44.9998 31.4478 44.552 31 43.9998 31H42.9998Z" fill="#FC6053"/>
<path d="M30.9998 31C30.4475 31 29.9998 31.4478 29.9998 32V33C29.9998 33.5522 30.4475 34 30.9998 34H31.9998C32.552 34 32.9998 33.5522 32.9998 33V32C32.9998 31.4478 32.552 31 31.9998 31H30.9998Z" fill="#FC6053"/>
<path d="M36.9998 27C36.4475 27 35.9998 27.4478 35.9998 28V29C35.9998 29.5522 36.4475 30 36.9998 30H37.9998C38.552 30 38.9998 29.5522 38.9998 29V28C38.9998 27.4478 38.552 27 37.9998 27H36.9998Z" fill="#FC6053"/>
<path d="M42.9998 27C42.4475 27 41.9998 27.4478 41.9998 28V29C41.9998 29.5522 42.4475 30 42.9998 30H43.9998C44.552 30 44.9998 29.5522 44.9998 29V28C44.9998 27.4478 44.552 27 43.9998 27H42.9998Z" fill="#FC6053"/>
<path d="M30.9998 27C30.4475 27 29.9998 27.4478 29.9998 28V29C29.9998 29.5522 30.4475 30 30.9998 30H31.9998C32.552 30 32.9998 29.5522 32.9998 29V28C32.9998 27.4478 32.552 27 31.9998 27H30.9998Z" fill="#FC6053"/>
</svg>
