<svg width="79" height="80" viewBox="0 0 79 80" fill="none" xmlns="http://www.w3.org/2000/svg">
<path fill-rule="evenodd" clip-rule="evenodd" d="M71 13C71 15.7614 68.7614 18 66 18C63.2386 18 61 15.7614 61 13C61 10.2386 63.2386 8 66 8C68.7614 8 71 10.2386 71 13ZM68 13C68 14.1046 67.1046 15 66 15C64.8954 15 64 14.1046 64 13C64 11.8954 64.8954 11 66 11C67.1046 11 68 11.8954 68 13Z" fill="white"/>
<path fill-rule="evenodd" clip-rule="evenodd" d="M79 13C79 20.1797 69 31 66 31C63 31 53 20.1797 53 13C53 5.8203 58.8203 0 66 0C73.1797 0 79 5.8203 79 13ZM76 13C76 14.1558 75.5789 15.7073 74.6928 17.5294C73.8256 19.3124 72.6124 21.1517 71.2802 22.8211C69.9462 24.4926 68.5561 25.9147 67.3826 26.8873C66.8103 27.3616 66.3422 27.685 66 27.8779C65.6578 27.685 65.1897 27.3616 64.6174 26.8873C63.4439 25.9147 62.0538 24.4926 60.7198 22.8211C59.3876 21.1517 58.1744 19.3124 57.3072 17.5294C56.4211 15.7073 56 14.1558 56 13C56 7.47715 60.4772 3 66 3C71.5229 3 76 7.47715 76 13Z" fill="white"/>
<path fill-rule="evenodd" clip-rule="evenodd" d="M27 54.5C27 59.1944 23.1944 63 18.5 63C13.8056 63 10 59.1944 10 54.5C10 49.8056 13.8056 46 18.5 46C23.1944 46 27 49.8056 27 54.5ZM24 54.5C24 57.5376 21.5376 60 18.5 60C15.4624 60 13 57.5376 13 54.5C13 51.4624 15.4624 49 18.5 49C21.5376 49 24 51.4624 24 54.5Z" fill="white"/>
<path fill-rule="evenodd" clip-rule="evenodd" d="M18.5 80C22.7692 80 37 64.6422 37 54.4516C37 44.2611 28.7173 36 18.5 36C8.28273 36 0 44.2611 0 54.4516C0 64.6422 14.2308 80 18.5 80ZM32.0132 61.4278C33.3155 58.7571 34 56.3585 34 54.4516C34 45.9253 27.0678 39 18.5 39C9.93217 39 3 45.9253 3 54.4516C3 56.3585 3.68448 58.7571 4.98677 61.4278C6.26997 64.0594 8.05124 66.7481 9.99148 69.173C11.9334 71.5999 13.9711 73.6835 15.7196 75.1288C16.5972 75.8541 17.3459 76.3722 17.9279 76.6931C18.2065 76.8467 18.3938 76.9255 18.5 76.9652C18.6062 76.9255 18.7935 76.8467 19.0721 76.6931C19.6541 76.3722 20.4028 75.8541 21.2804 75.1288C23.0289 73.6835 25.0666 71.5999 27.0085 69.173C28.9488 66.7481 30.73 64.0594 32.0132 61.4278Z" fill="white"/>
<path d="M45 31H56.5C57.3284 31 58 31.6716 58 32.5C58 33.3284 57.3284 34 56.5 34H45C42.7909 34 41 35.7909 41 38C41 40.2091 42.7909 42 45 42H72C75.866 42 79 45.134 79 49C79 52.866 75.866 56 72 56H49C46.7909 56 45 57.7909 45 60C45 62.2091 46.7909 64 49 64H65C68.866 64 72 67.134 72 71C72 74.866 68.866 78 65 78H37.5C36.6716 78 36 77.3284 36 76.5C36 75.6716 36.6716 75 37.5 75H65C67.2091 75 69 73.2091 69 71C69 68.7909 67.2091 67 65 67H49C45.134 67 42 63.866 42 60C42 56.134 45.134 53 49 53H72C74.2091 53 76 51.2091 76 49C76 46.7909 74.2091 45 72 45H45C41.134 45 38 41.866 38 38C38 34.134 41.134 31 45 31Z" fill="#FC6053"/>
</svg>
