<svg width="328" height="359" viewBox="0 0 328 359" fill="none" xmlns="http://www.w3.org/2000/svg">
<path d="M272.066 174.445C295.211 174.445 315.664 185.98 328 203.618V359H1.18563C1.06243 356.76 1 354.504 1 352.233C1 307.223 25.5162 267.944 61.9127 247.043C61.4661 243.001 61.2368 238.894 61.2368 234.733C61.2368 173.577 110.772 124 171.876 124C210.764 124 244.965 144.08 264.695 174.445H272.066Z" fill="#FC6053"/>
<path d="M328 227.103C313.226 210.575 289.445 198.364 281.061 194.389C280.886 194.306 281.841 195.699 281.678 195.622L280.443 194.389L247.709 233.226C237.209 262.816 216.21 322.243 216.21 323.229C216.21 324.215 267.267 319.941 292.796 317.681C303.167 315.04 317.955 308.664 328 298.2V227.103Z" fill="#E34D3F"/>
<path fill-rule="evenodd" clip-rule="evenodd" d="M294.021 15.8736L328 50.884V209.332L213.337 91.1223C208.072 86.3643 203.865 80.5582 200.985 74.078C198.106 67.5977 196.618 60.5871 196.618 53.4979C196.618 46.4087 198.106 39.3983 200.985 32.9181C203.865 26.4379 208.072 20.6317 213.337 15.8736C224.371 5.84572 238.757 0.288086 253.679 0.288086C268.601 0.288086 282.986 5.84572 294.021 15.8736ZM226.691 359L328 254.428V359H226.691Z" fill="#1D2371"/>
<path d="M134.683 209.127C141.44 200.528 173.175 188.038 188.736 182.101C192.216 184.353 202.495 188.612 215.762 187.629C229.029 186.646 236.441 180.668 238.489 177.801L280.871 195C281.075 206.465 279.028 236.522 269.2 265.022C259.373 293.523 258.963 339.549 259.987 359H106.429V270.55C113.39 253.147 127.927 217.726 134.683 209.127Z" fill="#1D2371"/>
<path d="M256.655 359H197.949V227.555C197.949 226.106 224.46 195.257 238.392 179.234C231.204 189.479 218.489 264.614 256.655 359Z" fill="#252C80"/>
<path d="M239.103 178.416L238.392 179.234C238.636 178.886 238.874 178.613 239.103 178.416Z" fill="#252C80"/>
<path d="M151.961 197.703C144.104 205.693 136.463 216.558 132.841 230.012C126.702 252.812 113.913 317.41 106.429 356.515V270.551C113.39 253.148 127.927 217.727 134.683 209.128C137.365 205.715 143.982 201.689 151.961 197.703Z" fill="#252C80"/>
<path d="M197.636 177.802C193.175 178.839 190.991 179.927 187.808 182.715C179.004 200.323 164.59 251.018 162.624 312.933C160.167 342.416 163.239 355.11 165.081 357.772C165.081 357.772 165.528 358.219 166.343 359H220.362C219.63 352.411 218.84 345.944 218.06 339.561C211.646 287.044 205.621 239.225 238.789 177.802C236.742 176.778 232.033 174.73 229.576 174.73L197.636 177.802Z" fill="white"/>
<path d="M233.177 175C226.387 192.79 210.459 205.708 206.339 205.708C202.025 205.708 197.448 200.374 195.246 194.011C184.359 217.2 163.324 274.043 166.282 315.906C168.165 342.552 168.982 354.483 169.275 359H220.512C219.778 352.396 218.985 345.914 218.203 339.517C211.768 286.881 206.032 239.966 239 177.389C237.707 176.744 235.356 175.691 233.177 175Z" fill="#F6F7FB"/>
<path d="M202.359 201.568C176.647 257.269 178.44 326.02 184.436 346.716C191.602 349.377 207.308 346.56 200.406 330.746C193.858 315.739 199.131 239.744 205.189 202.502C205.469 200.784 203.088 199.987 202.359 201.568Z" fill="#FC6053"/>
<path d="M189.351 324.603C181.488 324.112 179.932 328.493 180.137 330.745L192.422 346.715C193.65 349.787 205.321 347.249 215.148 345.487C224.976 343.725 285.171 328.903 301.755 322.76C318.339 316.618 317.111 304.333 314.654 292.663C312.197 280.993 299.544 228.66 295.613 215.884C291.682 203.108 283.942 196.433 280.871 195C266.744 204.828 267.358 221.412 264.287 237.382C261.216 253.352 271.658 269.322 273.501 277.307C275.343 285.292 275.957 289.592 271.044 295.12C261.83 304.948 199.178 325.217 189.351 324.603Z" fill="#252C80"/>
<path d="M189.965 328.902C186.034 328.902 178.499 329.721 175.223 330.131L170.924 335.045C173.381 341.596 177.312 353.472 178.295 353.472C179.523 353.472 193.65 349.172 197.336 344.258C198.587 342.59 198.36 339.959 197.95 338.73C196.926 335.454 193.896 328.902 189.965 328.902Z" fill="#EBBAB6"/>
<path d="M4.92123 264C1.73218 264 -0.613812 266.998 0.142767 270.106L21.7787 359H185L163.71 271.529C162.635 267.109 158.688 264 154.153 264H4.92123Z" fill="white"/>
<path d="M5.90712 268C2.72722 268 0.387947 270.988 1.14236 274.086L21.818 359H180L159.67 275.504C158.597 271.099 154.661 268 150.14 268H5.90712Z" fill="#D2D4E7"/>
<path d="M80.9232 308.046L74.2859 325.58C73.7906 326.888 74.7573 328.288 76.1563 328.288H98.3044C100.028 328.288 100.944 326.254 99.8024 324.963L84.2917 307.429C83.2943 306.302 81.4561 306.638 80.9232 308.046Z" stroke="#C2C4DB" stroke-width="8"/>
<path d="M201.636 198.071C196.768 193.591 195.821 175.817 196.227 167.935C209.613 155.284 235.656 131.847 232.735 139.314C229.084 148.647 229.084 163.596 230.301 171.062C231.518 178.529 223.714 186.967 220.063 190.7C216.412 194.434 206.504 202.551 201.636 198.071Z" fill="#E5AFAB"/>
<path d="M198.79 172.094C178.47 173.211 172.424 129.277 174.327 102.977C176.772 102.977 181.664 102.607 181.664 101.125C181.664 99.6442 187.779 95.5709 190.836 93.7194C203.88 93.3079 230.825 94.5834 234.249 102.977C237.673 111.37 238.733 119.964 232.619 140.948C228.95 149.588 217.877 171.045 198.79 172.094Z" fill="#EBB9B5"/>
<path d="M188.896 94.7633C187.611 121.323 193.916 162.276 213.482 161.196C216.167 161.048 218.693 160.494 221.061 159.626C226.712 153.011 230.42 145.412 232.26 141.059C238.362 120.026 237.304 111.412 233.887 102.999C230.47 94.5856 203.579 93.3071 190.56 93.7195C190.071 94.0169 189.504 94.3714 188.896 94.7633Z" fill="#E4ADA8"/>
<path d="M181.727 72.902C170.671 75.9732 169.08 85.0522 168.214 95.6286C167.163 108.449 171.538 111.464 173.995 112.078C196.107 114.535 205.559 107.901 213.92 112.078C216.991 113.613 215.762 121.906 215.762 124.977C216.545 124.684 219.114 124.49 220.676 123.135C223.749 120.469 223.133 118.221 228.047 118.221C229.89 118.221 232.88 121.509 232.961 126.82C234.189 137.876 232.961 139.719 232.346 140.333C234.189 139.105 236.749 133.577 237.875 126.82C240.946 108.393 239.435 99.1795 237.26 95.4941C233.096 88.4365 226.566 89.4863 225.952 88.872C217.352 71.6734 194.011 69.4895 181.727 72.902Z" fill="#545AA8"/>
<path d="M181.727 75.359C170.671 78.4302 169.08 87.5092 168.214 98.0856C167.163 110.906 171.538 113.921 173.995 114.535C196.107 116.992 205.559 110.358 213.92 114.535C216.991 116.07 215.762 124.363 215.762 127.434C216.545 127.141 219.114 126.947 220.676 125.592C223.749 122.926 223.133 120.678 228.047 120.678C229.89 120.678 232.88 123.966 232.961 129.277C234.189 140.333 231 141.548 231.732 142.176C234.189 139.105 236.749 136.034 237.875 129.277C240.946 110.85 239.435 101.637 237.26 97.9512C233.096 90.8935 226.566 91.9433 225.952 91.3291C217.352 74.1305 194.011 71.9466 181.727 75.359Z" fill="#161B62"/>
<path d="M201.782 153H189.098C188.463 158.182 191.107 159.59 191.634 159.91C193.537 161.061 196.708 161.637 199.879 159.91C202.222 158.633 202.204 154.919 201.782 153Z" fill="white"/>
<path d="M85.3663 173.341C85.4608 172.535 85.5094 171.715 85.5094 170.884C85.5094 159.35 76.1593 150 64.6255 150C54.9698 150 46.8444 156.553 44.4543 165.454C35.5531 167.844 29 175.97 29 185.625C29 197.159 38.3501 206.509 49.8839 206.509H89.809C98.9682 206.509 106.393 199.084 106.393 189.925C106.393 180.766 98.9682 173.341 89.809 173.341H85.3663Z" fill="white"/>
</svg>
