<svg width="705" height="450" viewBox="0 0 705 450" fill="none" xmlns="http://www.w3.org/2000/svg">
<rect y="207" width="705" height="242" fill="#D7E2F5"/>
<path d="M590 406H705V449H596L590 406Z" fill="white"/>
<rect x="635" y="260" width="6" height="146" fill="#181D61"/>
<rect x="667" y="328" width="6" height="31" fill="#181D61"/>
<path d="M666.467 206.862C670.586 234.271 656.977 259.037 636.069 262.179C615.162 265.321 594.874 245.65 590.754 218.242C586.635 190.833 594.949 130.832 615.856 127.69C636.764 124.547 662.348 179.454 666.467 206.862Z" fill="#FD634E"/>
<path d="M600.854 314.534C624.701 328.659 635.298 354.856 624.523 373.046C613.748 391.237 585.682 394.533 561.835 380.408C537.988 366.283 496.735 321.928 507.509 303.737C518.284 285.546 577.007 300.409 600.854 314.534Z" fill="#181D61"/>
<path d="M658.935 180.291L632.127 224.394L636.638 250.99L666.934 210.733C667.027 211.756 667.095 212.774 667.14 213.786L637.098 253.704L638.458 261.72C637.832 261.867 637.198 261.994 636.558 262.101C636.537 262.105 636.516 262.108 636.496 262.112L635.133 254.076L599.855 224.264L601.146 222.736L634.614 251.02L629.918 223.332L598.293 191.707L599.707 190.293L629.34 219.926L623.79 187.204L595.192 158.606C595.389 157.858 595.591 157.117 595.798 156.384L623.213 183.798L613.782 128.199C614.418 127.981 615.067 127.817 615.728 127.71L625.326 184.297L643.922 149.935C644.331 150.577 644.737 151.228 645.14 151.887L625.869 187.497L631.616 221.384L658.019 177.948C658.331 178.73 658.636 179.512 658.935 180.291Z" fill="white"/>
<path d="M575.5 303.583L592.746 352.228L616.21 365.536L604.15 316.618C605.001 317.192 605.833 317.782 606.646 318.387L618.604 366.894L625.676 370.905C625.395 371.483 625.093 372.055 624.772 372.619C624.761 372.637 624.751 372.655 624.741 372.673L617.651 368.653L572.253 377.16L571.885 375.194L614.954 367.123L590.527 353.269L546.032 357.799L545.83 355.809L587.521 351.564L558.652 335.191L518.417 339.288C517.961 338.663 517.514 338.038 517.077 337.414L555.647 333.487L506.594 305.666C506.827 305.035 507.109 304.429 507.444 303.849L557.369 332.164L542.485 296.039C543.241 296.128 544.002 296.225 544.767 296.329L560.192 333.765L590.09 350.722L573.105 302.813C573.908 303.065 574.707 303.322 575.5 303.583Z" fill="white"/>
<rect x="441" y="406" width="128" height="17" rx="8.5" fill="#181D61"/>
<path d="M461 344.5L466 313C484.833 306.333 524.2 295.7 531 306.5C572 382.5 530 406.5 511.5 406.5H451L463.5 450L405.5 449L391.452 389.568C388.395 376.634 395.992 363.569 408.745 359.828L461 344.5Z" fill="#FD634E"/>
<path d="M451.085 406.797L463 449H405.5L391.452 389.568C388.758 378.167 394.341 366.664 404.437 361.535C415.038 371.717 435.644 391.753 451.085 406.797Z" fill="#181D61"/>
<path d="M70.5488 449L79.927 414H97.5267L88.1486 449H70.5488Z" fill="#FD634E"/>
<path d="M162 449L152.621 414H135.022L144.4 449H162Z" fill="#FD634E"/>
<path d="M457 449L466.378 414H483.978L474.6 449H457Z" fill="#181D61"/>
<path d="M548.451 449L539.073 414H521.473L530.851 449H548.451Z" fill="#181D61"/>
<path d="M169.5 265L155.5 215L133.5 221C133 225.167 133.8 238 141 256C147.296 271.739 160.676 287.606 168.841 295.912C170.61 297.711 173.459 297.795 175.126 295.9C189.206 279.897 204.917 235.935 210.5 215L206.5 210L169.5 265Z" fill="#EBB9B5"/>
<rect x="36" y="406" width="128" height="17" rx="8.5" fill="#FD634E"/>
<rect x="177" y="316" width="243" height="17" rx="8.5" fill="#FD634E"/>
<rect x="237" y="333" width="116" height="17" transform="rotate(90 237 333)" fill="#FD634E"/>
<rect x="375" y="333" width="116" height="17" transform="rotate(90 375 333)" fill="#FD634E"/>
<rect x="358" y="423" width="121" height="17" transform="rotate(-180 358 423)" fill="#FD634E"/>
<path d="M135.5 313.5L78.0001 294C75.9999 298.667 70.4997 311.2 64.5001 326C32.9001 380.8 72.9997 406 97.0001 406H149L138.5 449H178L207.736 394.13C214.176 382.247 208.477 367.421 195.736 362.91L139.5 343L135.5 313.5Z" fill="#181D61"/>
<path d="M228.5 449L205.5 395.5L182 432.5L192 449H228.5Z" fill="#181D61"/>
<path d="M37.7028 215.917C44.0343 199.941 69.8734 190.057 82.5 187.5C111.948 183.027 145.419 199.627 161.307 210.272C162.944 211.369 162.998 213.716 161.467 214.956L145.333 228.016C144.258 228.887 143.917 230.381 144.51 231.632L152.033 247.513C152.334 248.151 152.402 248.874 152.224 249.556L135.5 313.5L78 294L64 258.5L69.3138 241.673C69.7194 240.389 69.2192 238.991 68.0907 238.256L38.8433 219.201C37.7461 218.486 37.2203 217.134 37.7028 215.917Z" fill="white"/>
<path d="M35.2733 300.617C33.9265 271.688 36.2481 254.046 45 223.5L69 239L60.4038 289.144C60.1551 290.595 60.7234 292.065 61.8832 292.972L119.5 338C151.5 338 157.667 350 158 355.5H127.5C119.5 355.5 112.833 350.167 110.5 347.5L108.884 346.711C75.7275 330.532 55.7729 320.794 38.9214 307.733C36.715 306.023 35.4031 303.406 35.2733 300.617Z" fill="#EBB9B5"/>
<path d="M454.5 166C454.5 185.2 464.167 197 469 200.5L551 273.5C572 277 589.641 271.627 607 240.5C621.5 214.5 607.5 191.5 587 181.5C570.5 174 555 178.5 555 137.5C551.5 96.9999 517.5 82.9999 499.5 79.9999C481.5 76.9999 478.5 85.9999 470.5 90.4999C447.5 97.4999 446 110.5 447 124.5C448 138.5 454.5 142 454.5 166Z" fill="#181D61"/>
<path d="M431 264L442.5 284L453 265.5L467.5 311L521 281.5V272.5L547 289.5C558.734 246.287 565 222 552 204.5C535.5 187.5 502.5 183.5 467.5 191C446.474 195.506 431 239 431 264Z" fill="white"/>
<path d="M539.746 299.301C542.079 295.769 543.645 292.415 545.5 287.5L521.5 271.5L520.5 281L446.5 305L453 316C482.548 312.84 500.9 311.771 528.524 306.406C533.037 305.53 537.212 303.138 539.746 299.301Z" fill="#EBB9B5"/>
<path d="M152.5 165C144.9 159.4 144.627 125.833 146.627 114H140.126C139.96 123 139.826 142.5 140.626 148.5C141.426 154.5 149.666 164.5 152.5 165Z" fill="#FD634E"/>
<path d="M82 190C85.9281 181.85 87.4105 177.242 88.5 169L111 174L108.5 188.5C110.105 190.969 111.537 193.302 112.828 195.521C116.631 202.056 111.851 209.918 104.301 210.305C101.842 210.431 99.4024 209.724 97.446 208.229C90.83 203.174 86.8438 198.997 82 190Z" fill="#EBB9B5"/>
<path d="M108.932 185.997C104.953 187.15 100.025 186.99 95.1316 185.244C91.576 183.975 88.5363 182.047 86.2383 179.778C87.28 176.496 87.9419 173.226 88.5005 169L111 174L108.932 185.997Z" fill="#D39993"/>
<path d="M125 177C111 186.6 90.4999 173 81.9999 165C78.3333 162.333 70.5999 156.8 68.9999 156C66.9999 155 69.9999 118 70.9999 116C71.7999 114.4 84.9999 103.333 91.4999 98C108.333 95.5 142.1 94.9 142.5 112.5C143 134.5 146.5 162.257 125 177Z" fill="#EBB9B5"/>
<path d="M520.5 189L508.5 154.5L487 169.5L495 187.5C491.656 190.393 489.585 193.133 487.982 196.104C485.297 201.08 488.243 207.167 493.505 209.234C496.353 210.353 499.576 210.184 502.168 208.559C509.967 203.669 515.674 198.003 520.5 189Z" fill="#EBB9B5"/>
<path d="M494.117 185.514C500.379 184.381 506.675 179.722 510.554 172.61C511.544 170.795 512.315 168.934 512.873 167.071L508.5 154.5L487 169.5L494.117 185.514Z" fill="#D39993"/>
<path d="M433.5 263L363 281.5L369.5 291.5C388.167 289.833 427.3 286.2 434.5 285C441.7 283.8 443.833 277.5 444 274.5L433.5 263Z" fill="#EBB9B5"/>
<ellipse cx="344.062" cy="276.977" rx="6.5" ry="10.5" transform="rotate(-45.853 344.062 276.977)" fill="#EBB9B5"/>
<path d="M427.5 302.5C416.795 301.241 410.138 307.127 406.895 312.21C405.78 313.957 407.176 316 409.248 316H412C418.5 316 428 317 438 321C446 324.2 451.333 319 453 316L447 305C446.167 304.833 441.1 304.1 427.5 302.5Z" fill="#EBB9B5"/>
<path d="M476.364 176.722C489.861 186.253 507.305 167.943 515.5 160C519.035 157.352 528.809 156.667 530.351 155.873C532.28 154.88 529.387 118.145 528.423 116.16C527.652 114.571 514.926 103.584 508.66 98.2889C492.432 95.8068 459.878 95.2111 459.493 112.685C459.011 134.527 455.636 162.085 476.364 176.722Z" fill="#EBB9B5"/>
<path d="M474 157L491 156C490 158 486.59 162.5 481 162.5C476.5 162.5 474.833 159.167 474 157Z" fill="white"/>
<path d="M468.151 120.231C464.639 119.207 458.035 121.805 455 123.773C466.633 120.231 468.151 125.544 469.668 124.954C471.185 124.363 472.197 121.412 468.151 120.231Z" fill="#181D61"/>
<path d="M485.849 120.231C489.361 119.207 495.965 121.805 499 123.773C487.367 120.231 485.849 125.544 484.332 124.954C482.815 124.363 481.803 121.412 485.849 120.231Z" fill="#181D61"/>
<path d="M472.5 102C462.5 101.6 458 113.833 457 120C455.834 118.833 453.3 115.9 452.5 113.5C451.5 110.5 455 106.5 457 103C459 99.5 464 97 467 96C470 95 487.5 91.5 505 93C522.5 94.5 526 106.5 530 111.5C534 116.5 540 150 539.5 151.5C539.1 152.7 527.5 177.5 521 189.5C510.229 178.927 506.238 172.058 509.5 155C511.167 150 514.1 137.3 512.5 126.5C508.5 103.5 485 102.5 472.5 102Z" fill="#181D61"/>
<path d="M75.5 95C69.1666 100.5 56.1999 116.6 54.9999 137C53.8137 157.165 75.9804 168.243 87.5983 171.393C92.5593 161.79 92.9606 155.862 87.9999 144C85.3332 142.333 81 143 80 134C79.4444 129 84.6667 127.667 87 128C86.0001 131 87.9999 138 92.5 143C96.1001 147 96.6667 153.333 96.5 156C97.3333 152.667 99.5 145.5 94.5 136C90.4142 128.237 94.3333 116.667 96.5 112C115.651 114.704 127.376 116.522 146.5 115.5C148.157 115.5 149.5 114.157 149.5 112.5V109C148 95 134.5 88.2083 127 88.5C120.984 88.7339 117 89 101.5 87C89.1 85.4 79 91.6666 75.5 95Z" fill="#FD634E"/>
<path d="M125.5 132C125.5 138.5 126.011 139.016 130 143.462C128.389 146.799 126.72 148.069 122 149" stroke="white" stroke-width="2"/>
<path d="M477.5 132C477.5 138.5 476.989 139.016 473 143.462C474.611 146.799 476.28 148.069 481 149" stroke="white" stroke-width="2"/>
<path d="M64 68.9999C54.4 80.5999 70 91.8333 79 96C80.8334 97.3333 84.9 99.3999 86.5 96.9999C88.5 93.9999 90 86.5 90 74.9999C90 63.4999 76 54.4999 64 68.9999Z" fill="#FD634E"/>
<ellipse cx="110.939" cy="133.259" rx="2.5" ry="4" transform="rotate(6.53919 110.939 133.259)" fill="#1D2371"/>
<ellipse cx="134.939" cy="134.259" rx="2.5" ry="4" transform="rotate(6.53919 134.939 134.259)" fill="#1D2371"/>
<ellipse cx="467.5" cy="134" rx="2.5" ry="4" fill="#1D2371"/>
<ellipse cx="490.5" cy="133" rx="2.5" ry="4" fill="#1D2371"/>
<path d="M116.151 120.231C112.639 119.207 106.035 121.805 103 123.773C114.633 120.231 116.151 125.544 117.668 124.954C119.185 124.363 120.197 121.412 116.151 120.231Z" fill="#FD634E"/>
<path d="M133.808 120.838C137.457 120.592 143.349 124.549 145.89 127.123C135.29 121.164 132.666 126.027 131.311 125.124C129.956 124.222 129.603 121.121 133.808 120.838Z" fill="#FD634E"/>
<path d="M126.5 156.5L109.5 155.5C110.5 157.5 113.91 162 119.5 162C124 162 125.667 158.667 126.5 156.5Z" fill="white"/>
<ellipse cx="207.5" cy="200.5" rx="9.5" ry="22.5" fill="#EBB9B5"/>
<path d="M203 280H246.294C246.684 280 247 280.316 247 280.706V294C247 306.15 237.15 316 225 316C212.85 316 203 306.15 203 294V280Z" fill="#181D61"/>
<circle cx="203" cy="293" r="10.5" stroke="#181D61" stroke-width="5"/>
<path d="M341 253H385L375 316H351L341 253Z" fill="white"/>
<path d="M347 257H379L373 298H353L347 257Z" fill="#FD634E"/>
<ellipse cx="514.773" cy="139.044" rx="6.5" ry="9.69951" transform="rotate(14.884 514.773 139.044)" fill="#EDB3AE"/>
<path d="M471 136C471 142.306 466.989 147 462.5 147C458.011 147 454 142.306 454 136C454 129.694 458.011 125 462.5 125C466.989 125 471 129.694 471 136Z" stroke="white" stroke-width="2"/>
<path d="M498 136C498 142.306 493.989 147 489.5 147C485.011 147 481 142.306 481 136C481 129.694 485.011 125 489.5 125C493.989 125 498 129.694 498 136Z" stroke="white" stroke-width="2"/>
<path d="M498 133.5L518.5 128" stroke="white" stroke-width="2"/>
<path d="M705 231.562C688.876 240.778 672.906 253.646 664.376 263.748C646.495 284.925 645.095 313.149 661.249 326.789C672.623 336.393 689.668 336.206 705 327.862V231.562Z" fill="#181D61"/>
<path d="M705 273.224L686.435 294.389L686.733 243.559C686.057 244.062 685.387 244.567 684.724 245.073L684.421 296.685L666.633 316.964L661.949 266.799C661.333 267.621 660.741 268.452 660.173 269.29L664.818 319.033L659.457 325.145C659.912 325.599 660.385 326.04 660.874 326.467L660.921 326.508L666.296 320.381L705 314.548V312.525L668.34 318.05L686.859 296.938L705 292.626V290.571L689.137 294.341L705 276.257V273.224Z" fill="white"/>
<path d="M705 356.058C689.084 349.314 672.273 350.73 661.894 361.242C647.041 376.288 650.989 404.27 670.713 423.742C678.43 431.361 691.301 440.38 705 447.636V356.058Z" fill="#FD634E"/>
<path d="M705 364.855L669.35 365.403L663.673 359.583C663.185 360.002 662.709 360.439 662.245 360.893L662.2 360.938L667.891 366.772L671.206 412.841L673.201 412.697L670.056 368.991L689.666 389.094L696.597 433.278L698.573 432.968L692.078 391.567L705 404.813V401.949L692.241 388.869L705 389.938V387.931L690.108 386.683L671.272 367.374L705 366.856V364.855Z" fill="white"/>
<path d="M229.019 3.28542C242.298 -3.49962 258.563 1.76446 265.348 15.0431C272.133 28.3217 266.869 44.5865 253.59 51.3715L220.255 68.4048C221.524 74.9609 217.314 83.567 207.401 88.4482C208.878 83.886 208.435 80.3046 206.325 75.5226L204.613 76.3974C191.335 83.1824 175.07 77.9183 168.285 64.6397C161.5 51.3611 166.764 35.0963 180.043 28.3112L229.019 3.28542Z" fill="#FD634E"/>
<circle cx="323" cy="108" r="5.5" stroke="#FC6053" stroke-width="3"/>
<circle r="5.5" transform="matrix(-0.890484 0.455015 0.455015 0.890484 241.304 27.3284)" stroke="white" stroke-width="3"/>
<path d="M358 101C361.866 101 365 104.134 365 108H362C362 105.791 360.209 104 358 104C355.791 104 354 105.791 354 108C354 111.866 350.866 115 347 115C343.134 115 340 111.866 340 108H343C343 110.209 344.791 112 347 112C349.209 112 351 110.209 351 108C351 104.134 354.134 101 358 101Z" fill="#181D61"/>
<path d="M206.952 37.0206C203.509 38.7797 202.144 42.9965 203.903 46.4391L206.575 45.074C205.57 43.1068 206.35 40.6972 208.317 39.692C210.284 38.6869 212.694 39.4667 213.699 41.4339C215.458 44.8765 219.675 46.2413 223.117 44.4822C226.56 42.7231 227.925 38.5063 226.166 35.0637L223.494 36.4288C224.499 38.396 223.719 40.8056 221.752 41.8107C219.785 42.8159 217.375 42.0361 216.37 40.0689C214.611 36.6263 210.394 35.2615 206.952 37.0206Z" fill="white"/>
<path d="M380 102L375 108L380 114" stroke="#FC6053" stroke-width="3"/>
<path d="M187.817 47.9214L195 50.9893L193.277 58.6072" stroke="white" stroke-width="3"/>
<path fill-rule="evenodd" clip-rule="evenodd" d="M376.647 135H378C392.912 135 405 122.912 405 108C405 93.0883 392.912 81 378 81H323C308.088 81 296 93.0883 296 108C296 122.912 308.088 135 323 135H358.873C360.727 142.423 369.335 148.673 381.022 148.5L384.569 148.447L382.061 145.939C380.152 144.031 378.785 142.188 377.882 140.043C377.27 138.587 376.852 136.95 376.647 135ZM378 84H323C309.745 84 299 94.7452 299 108C299 121.255 309.745 132 323 132H361.5C361.5 137.729 367.371 144.264 377.541 145.348C376.564 144.068 375.751 142.712 375.118 141.207C374.021 138.603 373.5 135.645 373.5 132H378C391.255 132 402 121.255 402 108C402 94.7452 391.255 84 378 84Z" fill="#181D61"/>
</svg>
