<svg width="33" height="25" viewBox="0 0 33 25" fill="none" xmlns="http://www.w3.org/2000/svg">
<rect y="5" width="33" height="20" fill="#333991"/>
<path d="M11.5636 19.88L9.17408 17.4911L8.01585 18.6492C7.91587 18.7492 7.7707 18.7904 7.6323 18.7584C7.49393 18.7256 7.38273 18.624 7.33795 18.4893L5.02111 11.5395C4.97191 11.3923 5.01029 11.2299 5.11989 11.1203C5.22907 11.0112 5.39185 10.9712 5.53904 11.0216L12.4892 13.3383C12.624 13.3831 12.7256 13.4943 12.7584 13.6326C12.7908 13.7706 12.7496 13.9158 12.6492 14.0161L11.491 15.1743L13.88 17.5636C14.04 17.7236 14.04 17.9828 13.88 18.1427L12.1427 19.88C11.9827 20.04 11.7235 20.04 11.5636 19.88Z" fill="white"/>
<rect width="33" height="5" fill="#FD634E"/>
</svg>
