<svg xmlns="http://www.w3.org/2000/svg" width="19.03" height="12" viewBox="0 0 19.03 12">
  <metadata><?xpacket begin="﻿" id="W5M0MpCehiHzreSzNTczkc9d"?>
<x:xmpmeta xmlns:x="adobe:ns:meta/" x:xmptk="Adobe XMP Core 5.6-c142 79.160924, 2017/07/13-01:06:39        ">
   <rdf:RDF xmlns:rdf="http://www.w3.org/1999/02/22-rdf-syntax-ns#">
      <rdf:Description rdf:about=""/>
   </rdf:RDF>
</x:xmpmeta>
                                                                                                    
                                                                                                    
                                                                                                    
                                                                                                    
                                                                                                    
                                                                                                    
                                                                                                    
                                                                                                    
                                                                                                    
                                                                                                    
                                                                                                    
                                                                                                    
                                                                                                    
                                                                                                    
                                                                                                    
                                                                                                    
                                                                                                    
                                                                                                    
                                                                                                    
                                                                                                    
                           
<?xpacket end="w"?></metadata>
<defs>
    <style>
      .cls-1 {
        fill: #d39500;
        fill-rule: evenodd;
      }
    </style>
  </defs>
  <path id="стрелка_вправо" data-name="стрелка вправо" class="cls-1" d="M1255.33,586.686a1.015,1.015,0,0,1,0-1.426l4.97-4.989a1,1,0,0,1,1.42,0,1.015,1.015,0,0,1,0,1.426l-4.97,4.989A1,1,0,0,1,1255.33,586.686Zm4.97-4.989-4.97-4.989a1.014,1.014,0,0,1,0-1.425,1,1,0,0,1,1.42,0l4.97,4.988a1.015,1.015,0,0,1,0,1.426A1,1,0,0,1,1260.3,581.7Zm0.7,0.271h-17a1,1,0,1,1,0-2h17A1,1,0,1,1,1261,581.968Z" transform="translate(-1243 -575)"/>
</svg>
