<svg xmlns="http://www.w3.org/2000/svg" width="18.969" height="12" viewBox="0 0 18.969 12">
  <metadata><?xpacket begin="﻿" id="W5M0MpCehiHzreSzNTczkc9d"?>
<x:xmpmeta xmlns:x="adobe:ns:meta/" x:xmptk="Adobe XMP Core 5.6-c142 79.160924, 2017/07/13-01:06:39        ">
   <rdf:RDF xmlns:rdf="http://www.w3.org/1999/02/22-rdf-syntax-ns#">
      <rdf:Description rdf:about=""/>
   </rdf:RDF>
</x:xmpmeta>
                                                                                                    
                                                                                                    
                                                                                                    
                                                                                                    
                                                                                                    
                                                                                                    
                                                                                                    
                                                                                                    
                                                                                                    
                                                                                                    
                                                                                                    
                                                                                                    
                                                                                                    
                                                                                                    
                                                                                                    
                                                                                                    
                                                                                                    
                                                                                                    
                                                                                                    
                                                                                                    
                           
<?xpacket end="w"?></metadata>
<defs>
    <style>
      .cls-1 {
        fill: #f1f1f1;
        fill-rule: evenodd;
      }
    </style>
  </defs>
  <path id="стрелка_влево" data-name="стрелка влево" class="cls-1" d="M22.69,586.685a1.011,1.011,0,0,0,0-1.425l-4.96-4.989a1,1,0,0,0-1.417,0,1.013,1.013,0,0,0,0,1.426l4.96,4.988A1,1,0,0,0,22.69,586.685Zm-4.96-4.988,4.96-4.989a1.011,1.011,0,0,0,0-1.425,1,1,0,0,0-1.417,0l-4.96,4.988a1.013,1.013,0,0,0,0,1.426A1,1,0,0,0,17.729,581.7Zm-0.7.271H34a1,1,0,0,0,0-2H17.029A1,1,0,0,0,17.029,581.968Z" transform="translate(-16.031 -575)"/>
</svg>
