<svg width="714" height="558" viewBox="0 0 714 558" fill="none" xmlns="http://www.w3.org/2000/svg">
<path d="M334.699 134.301C304.434 104.035 304.434 54.9646 334.699 24.6991C364.965 -5.56627 414.035 -5.56649 444.301 24.6991L690.374 270.772C720.64 301.038 720.639 350.108 690.374 380.374L512.849 557.898H313.222C315.919 542.861 323.078 528.467 334.699 516.845L525.972 325.573L334.699 134.301Z" fill="#FD634E"/>
<rect x="99" y="38" width="170" height="520" fill="#F3F4FF"/>
<rect x="332" y="88" width="160" height="470" fill="#EEEFFD"/>
<rect x="317" y="88" width="15" height="470" fill="#9A9DC5"/>
<path d="M269 88H317V208H363L317 230V290H363L317 312V372H363L317 394V454H363L317 476V536H363L317 558H240V518L269 502.696V476H240V436L269 420.696V394H240V354L269 338.696V312H240V272L269 256.696V230H240V190L269 174.696V88Z" fill="#BEC0E2"/>
<path opacity="0.1" d="M146 308H224L214 298H156L146 308Z" fill="#1D2371"/>
<path opacity="0.4" d="M224 68H146L156 78H214L224 68Z" fill="#1D2371"/>
<path opacity="0.2" d="M146 68L146 308L156 298L156 78L146 68Z" fill="#1D2371"/>
<path opacity="0.2" d="M224 68L224 308L214 298L214 78L224 68Z" fill="#1D2371"/>
<rect x="156" y="78" width="58" height="220" fill="#1D2371"/>
<path d="M11 334H171V460H11V334Z" fill="white"/>
<rect y="377" width="11" height="41" fill="#EEEFFD"/>
<path d="M11 418H0L11 389V418Z" fill="#9A9DC5"/>
<path d="M99 460H171L121 480H99V460Z" fill="#9A9DC5"/>
<rect x="283" y="332" width="80" height="40" fill="white"/>
<rect x="283" y="414" width="80" height="40" fill="white"/>
<rect x="283" y="496" width="80" height="40" fill="white"/>
<rect x="283" y="250" width="80" height="40" fill="white"/>
<rect x="283" y="168" width="80" height="40" fill="white"/>
<path d="M106 374L99 379V420H139.312L146 415H106V374Z" fill="#C4C6E1"/>
<path fill-rule="evenodd" clip-rule="evenodd" d="M214 99.7977L156 78V80.1366L162 82.3914V95.0596H156V108.06L204 126.06H214V116.06H211V100.807L214 101.934V99.7977ZM172 86.1497L164 83.1431V99.0596H172V86.1497ZM174 86.9013L182 89.9079V104.06H174V86.9013ZM184 90.6595L192 93.6661V108.06H184V90.6595ZM194 94.4178L202 97.4244V112.06H194V94.4178ZM204 98.176L209.012 100.06H209V116.06H204V98.176Z" fill="#333991"/>
<path fill-rule="evenodd" clip-rule="evenodd" d="M156 119L214 140.798V142.934L211 141.807V157.06H214V167.06H204L156 149.06V136.06H162V123.391L156 121.137V119ZM164 124.143L172 127.15V140.06H164V124.143ZM182 130.908L174 127.901V145.06H182V130.908ZM192 134.666L184 131.66V149.06H192V134.666ZM202 138.424L194 135.418V153.06H202V138.424ZM209.012 141.06L204 139.176V157.06H209V141.06H209.012Z" fill="#333991"/>
<path fill-rule="evenodd" clip-rule="evenodd" d="M214 177.798L156 156V158.137L162 160.391V173.06H156V186.06L204 204.06H214V194.06H211V178.807L214 179.934V177.798ZM172 164.15L164 161.143V177.06H172V164.15ZM174 164.901L182 167.908V182.06H174V164.901ZM184 168.66L192 171.666V186.06H184V168.66ZM194 172.418L202 175.424V190.06H194V172.418ZM204 176.176L209.012 178.06H209V194.06H204V176.176Z" fill="#333991"/>
<path fill-rule="evenodd" clip-rule="evenodd" d="M156 193L214 214.798V216.934L211 215.807V231.06H214V241.06H204L156 223.06V210.06H162V197.391L156 195.137V193ZM164 198.143L172 201.15V214.06H164V198.143ZM182 204.908L174 201.901V219.06H182V204.908ZM192 208.666L184 205.66V223.06H192V208.666ZM202 212.424L194 209.418V227.06H202V212.424ZM209.012 215.06L204 213.176V231.06H209V215.06H209.012Z" fill="#333991"/>
<path fill-rule="evenodd" clip-rule="evenodd" d="M156 230L214 251.798V253.934L211 252.807V268.06H214V278.06H204L156 260.06V247.06H162V234.391L156 232.137V230ZM164 235.143L172 238.15V251.06H164V235.143ZM182 241.908L174 238.901V256.06H182V241.908ZM192 245.666L184 242.66V260.06H192V245.666ZM202 249.424L194 246.418V264.06H202V249.424ZM209.012 252.06L204 250.176V268.06H209V252.06H209.012Z" fill="#333991"/>
<path fill-rule="evenodd" clip-rule="evenodd" d="M156 119.798L214 98V100.137L208 102.391V115.06H214V128.06L166 146.06H156V136.06H159V120.807L156 121.934V119.798ZM198 106.15L206 103.143V119.06H198V106.15ZM196 106.901L188 109.908V124.06H196V106.901ZM186 110.66L178 113.666V128.06H186V110.66ZM176 114.418L168 117.424V132.06H176V114.418ZM166 118.176L160.988 120.06H161V136.06H166V118.176Z" fill="#484D9C"/>
<path fill-rule="evenodd" clip-rule="evenodd" d="M214 139L156 160.798V162.934L159 161.807V177.06H156V187.06H166L214 169.06V156.06H208V143.391L214 141.137V139ZM206 144.143L198 147.15V160.06H206V144.143ZM188 150.908L196 147.901V165.06H188V150.908ZM178 154.666L186 151.66V169.06H178V154.666ZM168 158.424L176 155.418V173.06H168V158.424ZM160.988 161.06L166 159.176V177.06H161V161.06H160.988Z" fill="#484D9C"/>
<path fill-rule="evenodd" clip-rule="evenodd" d="M214 176L156 197.798V199.934L159 198.807V214.06H156V224.06H166L214 206.06V193.06H208V180.391L214 178.137V176ZM206 181.143L198 184.15V197.06H206V181.143ZM188 187.908L196 184.901V202.06H188V187.908ZM178 191.666L186 188.66V206.06H178V191.666ZM168 195.424L176 192.418V210.06H168V195.424ZM160.988 198.06L166 196.176V214.06H161V198.06H160.988Z" fill="#484D9C"/>
<path fill-rule="evenodd" clip-rule="evenodd" d="M214 212.94L156 234.738V236.875L159 235.747V251H156V261H166L214 243V230H208V217.332L214 215.077V212.94ZM206 218.083L198 221.09V234H206V218.083ZM188 224.848L196 221.842V239H188V224.848ZM178 228.607L186 225.6V243H178V228.607ZM168 232.365L176 229.358V247H168V232.365ZM160.988 235L166 233.116V251H161V235H160.988Z" fill="#484D9C"/>
<path fill-rule="evenodd" clip-rule="evenodd" d="M156 271.798L214 250V252.137L208 254.391V267.06H214V280.06L166.159 298H156V288.06H159V272.807L156 273.934V271.798ZM198 258.15L206 255.143V271.06H198V258.15ZM196 258.901L188 261.908V276.06H196V258.901ZM186 262.66L178 265.666V280.06H186V262.66ZM176 266.418L168 269.424V284.06H176V266.418ZM166 270.176L160.988 272.06H161V288.06H166V270.176Z" fill="#484D9C"/>
<rect x="142" width="84" height="15" fill="#EEEFFD"/>
<rect x="149" y="15" width="70" height="23" fill="#BEC0DB"/>
<path d="M219 15H149V33L219 15Z" fill="#9A9DC5"/>
<rect x="112" y="380" width="28" height="29" fill="#D9DBEF"/>
<path d="M43 374L36 379V420H76.3125L83 415H43V374Z" fill="#C4C6E1"/>
<rect x="49" y="380" width="28" height="29" fill="#D9DBEF"/>
<path d="M412 200H572V306H412V200Z" fill="white"/>
<path d="M402 210L412 200V306H492V319H402V210Z" fill="#9A9DC5"/>
<rect x="436" y="336" width="32" height="45" fill="#F9FAFF"/>
<path d="M436 381L433 386C444.225 384.261 465.186 381.372 467.758 381.028L436 381Z" fill="#BEC0DB"/>
<rect x="440" y="340" width="24" height="20" fill="#D9DBEF"/>
<rect x="440" y="364" width="24" height="13" fill="#D9DBEF"/>
<rect x="384" y="336" width="32" height="45" fill="#F9FAFF"/>
<path d="M384 381L381 386C392.225 384.261 413.186 381.372 415.758 381.028L384 381Z" fill="#BEC0DB"/>
<rect x="388" y="340" width="24" height="20" fill="#D9DBEF"/>
<rect x="388" y="364" width="24" height="13" fill="#D9DBEF"/>
<rect x="436" y="486" width="32" height="45" fill="#F9FAFF"/>
<path d="M436 531L433 536C444.225 534.261 465.186 531.372 467.758 531.028L436 531Z" fill="#BEC0DB"/>
<rect x="440" y="490" width="24" height="20" fill="#D9DBEF"/>
<rect x="440" y="514" width="24" height="13" fill="#D9DBEF"/>
<rect x="384" y="486" width="32" height="45" fill="#F9FAFF"/>
<path d="M384 531L381 536C392.225 534.261 413.186 531.372 415.758 531.028L384 531Z" fill="#BEC0DB"/>
<rect x="388" y="490" width="24" height="20" fill="#D9DBEF"/>
<rect x="388" y="514" width="24" height="13" fill="#D9DBEF"/>
<rect x="436" y="411" width="32" height="45" fill="#F9FAFF"/>
<path d="M436 456L433 461C444.225 459.261 465.186 456.372 467.758 456.028L436 456Z" fill="#BEC0DB"/>
<rect x="440" y="415" width="24" height="20" fill="#D9DBEF"/>
<rect x="440" y="439" width="24" height="13" fill="#D9DBEF"/>
<rect x="384" y="411" width="32" height="45" fill="#F9FAFF"/>
<path d="M384 456L381 461C392.225 459.261 413.186 456.372 415.758 456.028L384 456Z" fill="#BEC0DB"/>
<rect x="388" y="415" width="24" height="20" fill="#D9DBEF"/>
<rect x="388" y="439" width="24" height="13" fill="#D9DBEF"/>
</svg>
