<svg width="370" height="330" viewBox="0 0 370 330" fill="none" xmlns="http://www.w3.org/2000/svg">
<g clip-path="url(#clip0)">
<path d="M49.2661 330H344.542C317.414 256.087 261.49 205.362 196.904 205.362C132.318 205.362 76.3941 256.087 49.2661 330Z" fill="#FD634E"/>
<ellipse cx="196.904" cy="249.365" rx="61.3994" ry="70.6093" fill="white"/>
<ellipse cx="196.904" cy="249.365" rx="53.895" ry="61.7405" fill="#E6B9B6"/>
<path d="M231.5 230.5C228.667 240.167 219.4 259.8 205 261C190.6 262.2 175.667 256.167 170 253" stroke="white" stroke-width="3"/>
<rect x="143" y="161" width="83" height="80" rx="40" fill="#D39993"/>
<circle cx="225.815" cy="242.815" r="5.67644" transform="rotate(-13.2296 225.815 242.815)" fill="#FD634E"/>
<path d="M111.837 330C106.576 309.132 97.8787 290.314 86.645 274.492C88.0283 272.529 89.4373 270.6 90.8714 268.706C103.557 286.079 113.223 306.94 118.832 330H111.837Z" fill="white"/>
<path d="M290.599 330H283.604C289.214 306.94 298.879 286.079 311.565 268.706C312.999 270.6 314.408 272.529 315.791 274.492C304.557 290.314 295.86 309.132 290.599 330Z" fill="white"/>
<circle cx="216.815" cy="255.815" r="5.40468" transform="rotate(-13.2296 216.815 255.815)" fill="#FD634E"/>
<circle cx="202.376" cy="261.674" r="6.02906" transform="rotate(-13.2296 202.376 261.674)" fill="#FD634E"/>
<circle cx="188.119" cy="258.835" r="5.76531" transform="rotate(-13.2296 188.119 258.835)" fill="#FD634E"/>
<path d="M193.709 23.5641C205.837 37.4712 206.084 50.8903 200.432 58.0471C190.785 51.2156 184.939 55.1193 160.968 64.8787C136.998 74.638 146.937 119.856 153.953 134.821C154.944 136.935 155.658 138.607 156.149 139.912C160.827 138.28 170.423 137.637 166.523 141.977C160.822 148.321 162.687 153.963 166.593 153.551C168.335 151.277 171.661 150.981 168.861 152.713C168.061 153.208 167.294 153.477 166.593 153.551C165.061 155.549 164.754 159.076 170.907 164.099C184.062 174.834 177.593 197.518 173.5 205C169.407 212.482 175.877 228.185 179.385 235.992C182.893 243.8 188.155 242.173 186.401 257.138C179.093 314.392 59.9525 329.002 51.4751 286.386C42.9977 243.77 58.5525 232.575 64.3301 222.012C70.3289 211.045 80.6128 208.183 76.7563 183.388C73.5207 162.584 64.9148 164.424 64.3301 134.821C63.6789 101.847 62.1876 88.7468 85.3261 61.3153C96.8954 39.1549 113.875 44.384 120.891 23.5641C129.661 -2.46077 170.907 -2.58191 193.709 23.5641Z" fill="#181D61"/>
<path d="M219.46 15.1206C206.633 6.92122 175.521 23.3235 191.425 50.1065C191.425 80.0572 203.096 142.413 203.096 147.06C203.096 151.706 209.513 181.538 219.46 210.861C233.339 251.777 271.205 284.537 299.937 276.884C335.851 267.318 337.093 240.833 328.756 228.534C320.418 216.235 289.43 210.695 295.364 162.061C299.937 124.576 295.663 70.5353 275.14 59.6027C254.618 48.6701 235.493 25.3699 219.46 15.1206Z" fill="#181D61"/>
<path d="M137.141 137.255C120.825 108.995 130.653 72.854 159.033 56.7481C190.322 38.991 230.079 53.2591 242.937 86.8601L254.837 117.955C264.497 143.199 254.796 171.744 231.755 185.875C204.827 202.389 169.582 193.444 153.788 166.088L137.141 137.255Z" fill="#EBB9B5"/>
<path d="M207.462 51.9356C208.541 53.4626 208.72 55.4703 207.371 58.0835C203.555 65.4767 198.572 66.0334 189.041 67.0982C184.94 67.5564 179.997 68.1086 173.943 69.3401C153.817 73.4334 141.537 91.5121 141.196 98.3342C141.083 100.593 141.756 102.74 142.47 105.022C143.914 109.632 145.532 114.795 141.196 122.553C140.963 122.97 140.734 123.381 140.508 123.787C136.734 130.549 133.903 135.621 131.352 137.457L128.885 133.183C123.346 123.59 120.82 113.089 121.01 102.771C121.993 99.8383 122.899 96.584 123.808 93.3171C125.939 85.6601 128.089 77.9341 131.304 74.1156C136.762 67.6345 163.368 48.5325 170.532 45.8036C170.663 45.7536 170.798 45.706 170.935 45.6607C173.65 45.2471 176.372 45.0292 179.082 45C184.475 45.3135 190.408 46.5911 193.727 47.5092C194.833 47.5092 196.099 47.573 197.412 47.7229C200.881 48.8145 204.247 50.2245 207.462 51.9356Z" fill="#D39993"/>
<path d="M206.455 103.371L216.006 120.426L210.207 126.225" stroke="white" stroke-width="2"/>
<path d="M216.006 97.2307C218.962 99.5047 226.239 101.802 231.697 92.7963" stroke="#181D61" stroke-width="2"/>
<path d="M168.251 112.239C171.207 114.514 178.484 116.81 183.942 107.805" stroke="#181D61" stroke-width="2"/>
<path d="M193.493 142.257C199.292 145.554 213.55 150.171 224.192 142.257" stroke="white" stroke-width="2"/>
<ellipse cx="237.528" cy="115.504" rx="8.5277" ry="7.50437" fill="#D39993"/>
<ellipse cx="173.368" cy="128.954" rx="8.5277" ry="7.50437" fill="#D39993"/>
<circle cx="208.388" cy="81.3878" r="2.38776" fill="#181D61"/>
<circle cx="178.096" cy="91.3619" r="2.38776" fill="#181D61"/>
<path d="M206.796 53.2278C211.162 44.7683 199.519 42.6535 193.151 42.6535C187.807 41.1753 175.687 38.7648 169.956 40.9479C162.793 43.6768 136.186 62.7788 130.728 69.2599C125.271 75.7409 122.883 93.4785 118.449 103.03C114.014 112.581 122.201 127.589 126.294 132.024C130.387 136.458 134.14 129.295 140.621 117.697C147.102 106.1 140.28 100.301 140.621 93.4785C140.962 86.6564 153.242 68.5777 173.367 64.4844C193.492 60.3911 201.338 63.8021 206.796 53.2278Z" fill="#181D61"/>
<ellipse cx="138.349" cy="135.468" rx="13.9854" ry="16.7143" transform="rotate(-30.8905 138.349 135.468)" fill="#EBB9B5"/>
<circle cx="141.5" cy="148.5" r="6.5" fill="#FD634E"/>
<path d="M146 181.5C146 185.09 143.985 188 141.5 188C139.015 188 137 185.09 137 181.5C137 177.91 139.015 155 141.5 155C143.985 155 146 177.91 146 181.5Z" fill="white"/>
</g>
<defs>
<clipPath id="clip0">
<rect width="370" height="330" fill="white"/>
</clipPath>
</defs>
</svg>
