<svg width="370" height="330" viewBox="0 0 370 330" fill="none" xmlns="http://www.w3.org/2000/svg">
<rect x="103.376" y="51.4233" width="158.463" height="181.597" rx="79.2317" fill="#181D61"/>
<path d="M154.333 250.073C121.012 250.073 94 273.032 94 301.355V310H275V301.355C275 273.032 247.988 250.073 214.667 250.073H154.333Z" fill="#FD634E"/>
<g filter="url(#filter0_i)">
<path d="M88 282C88 276.477 92.4772 272 98 272H272C277.523 272 282 276.477 282 282V330H88V282Z" fill="#D2D4E7"/>
</g>
<path d="M171.224 294.495C172.563 293.157 174.735 293.157 176.075 294.495L187.799 306.201C189.139 307.538 189.139 309.707 187.799 311.045L176.075 322.751C174.735 324.089 172.563 324.089 171.224 322.751C169.884 321.413 169.884 319.245 171.224 317.907L180.522 308.623L171.224 299.339C169.884 298.001 169.884 295.832 171.224 294.495Z" fill="#C5C7DE"/>
<path d="M198.664 294.495C197.324 293.157 195.152 293.157 193.813 294.495L182.089 306.201C180.749 307.538 180.749 309.707 182.089 311.045L193.813 322.751C195.152 324.089 197.324 324.089 198.664 322.751C200.004 321.413 200.004 319.245 198.664 317.907L189.366 308.623L198.664 299.339C200.004 298.001 200.004 295.832 198.664 294.495Z" fill="#BABCD4"/>
<path d="M161 150.573C161 138.699 170.626 129.073 182.5 129.073V129.073C194.374 129.073 204 138.699 204 150.573V244.573C204 256.447 194.374 266.073 182.5 266.073V266.073C170.626 266.073 161 256.447 161 244.573V150.573Z" fill="#E6B9B6"/>
<path fill-rule="evenodd" clip-rule="evenodd" d="M204.007 245.237C197.587 248.519 190.314 250.37 182.608 250.37C174.903 250.37 167.63 248.519 161.21 245.237V146.848C161.21 135.03 170.791 125.45 182.609 125.45C194.427 125.45 204.007 135.03 204.007 146.848V245.237Z" fill="#D39993"/>
<ellipse cx="246.225" cy="155.886" rx="17.9283" ry="20.2417" fill="#EBB9B5"/>
<path d="M247.382 145.476C249.888 145.669 255.247 147.443 256.635 152.995" stroke="white" stroke-width="2"/>
<ellipse rx="17.9283" ry="20.2417" transform="matrix(-1 0 0 1 118.992 155.886)" fill="#EBB9B5"/>
<path d="M117.835 145.476C115.329 145.669 109.97 147.443 108.582 152.995" stroke="white" stroke-width="2"/>
<rect x="116.1" y="64.1467" width="133.017" height="174.657" rx="66.5083" fill="#EBB9B5"/>
<path d="M158.897 199.477C162.869 208.999 166.949 211.745 177.404 212.2" stroke="white" stroke-width="2"/>
<path d="M166.571 136.217C157.282 131.727 152.407 132.378 144.282 138.973" stroke="#181D61" stroke-width="2"/>
<path d="M223.982 134.971C214.693 130.481 209.817 131.132 201.693 137.727" stroke="#181D61" stroke-width="2"/>
<path d="M258.37 138.173H248.538C201.521 138.173 163.182 101.017 161.283 54.4657C168.048 52.4855 175.204 51.4233 182.608 51.4233C224.45 51.4233 258.37 85.3429 258.37 127.185V138.173Z" fill="#181D61"/>
<path d="M106.847 138.173H116.678C163.696 138.173 202.035 101.017 203.933 54.4657C197.169 52.4855 190.013 51.4233 182.608 51.4233C140.766 51.4233 106.847 85.3429 106.847 127.185V138.173Z" fill="#181D61"/>
<circle cx="210.368" cy="158.415" r="4.04833" fill="#181D61"/>
<circle cx="156.005" cy="158.415" r="4.04833" fill="#181D61"/>
<rect x="206.32" y="169.403" width="24.29" height="15.0367" rx="7.51833" fill="#D39993"/>
<rect x="135.763" y="169.403" width="24.29" height="15.0367" rx="7.51833" fill="#D39993"/>
<path d="M183.187 163.62C187.659 163.62 191.284 167.245 191.284 171.717C191.284 176.188 187.659 179.813 183.187 179.813V177.5C186.381 177.5 188.97 174.911 188.97 171.717C188.97 168.522 186.381 165.933 183.187 165.933V163.62Z" fill="white"/>
<circle cx="231.767" cy="44.4833" r="40.4833" fill="#181D61"/>
<circle cx="221.935" cy="157.258" r="32.6217" stroke="white" stroke-width="3"/>
<circle cx="147.908" cy="157.258" r="32.6217" stroke="white" stroke-width="3"/>
<rect x="182.03" y="154.367" width="6.94" height="3.47" fill="white"/>
<defs>
<filter id="filter0_i" x="88" y="272" width="194" height="58" filterUnits="userSpaceOnUse" color-interpolation-filters="sRGB">
<feFlood flood-opacity="0" result="BackgroundImageFix"/>
<feBlend mode="normal" in="SourceGraphic" in2="BackgroundImageFix" result="shape"/>
<feColorMatrix in="SourceAlpha" type="matrix" values="0 0 0 0 0 0 0 0 0 0 0 0 0 0 0 0 0 0 127 0" result="hardAlpha"/>
<feOffset dy="4"/>
<feComposite in2="hardAlpha" operator="arithmetic" k2="-1" k3="1"/>
<feColorMatrix type="matrix" values="0 0 0 0 1 0 0 0 0 1 0 0 0 0 1 0 0 0 1 0"/>
<feBlend mode="normal" in2="shape" result="effect1_innerShadow"/>
</filter>
</defs>
</svg>
