<svg width="370" height="330" viewBox="0 0 370 330" fill="none" xmlns="http://www.w3.org/2000/svg">
<g clip-path="url(#clip0)">
<rect x="102.376" y="51.3506" width="158.463" height="181.597" rx="79.2317" fill="#181D61"/>
<path d="M153.333 250C120.012 250 93 272.96 93 301.282V330H274V301.282C274 272.96 246.988 250 213.667 250H153.333Z" fill="#FD634E"/>
<g filter="url(#filter0_i)">
<path d="M87 282C87 276.477 91.4772 272 97 272H271C276.523 272 281 276.477 281 282V330H87V282Z" fill="#D2D4E7"/>
</g>
<path d="M170.224 294.422C171.563 293.084 173.735 293.084 175.075 294.422L186.799 306.128C188.139 307.466 188.139 309.634 186.799 310.972L175.075 322.678C173.735 324.016 171.563 324.016 170.224 322.678C168.884 321.341 168.884 319.172 170.224 317.834L179.522 308.55L170.224 299.266C168.884 297.928 168.884 295.76 170.224 294.422Z" fill="#C5C7DE"/>
<path d="M197.664 294.422C196.324 293.084 194.152 293.084 192.813 294.422L181.089 306.128C179.749 307.466 179.749 309.634 181.089 310.972L192.813 322.678C194.152 324.016 196.324 324.016 197.664 322.678C199.004 321.341 199.004 319.172 197.664 317.834L188.366 308.55L197.664 299.266C199.004 297.928 199.004 295.76 197.664 294.422Z" fill="#BABCD4"/>
<path d="M160 150.5C160 138.626 169.626 129 181.5 129C193.374 129 203 138.626 203 150.5V244.5C203 256.374 193.374 266 181.5 266C169.626 266 160 256.374 160 244.5V150.5Z" fill="#E6B9B6"/>
<path fill-rule="evenodd" clip-rule="evenodd" d="M203.007 245.164C196.587 248.446 189.314 250.297 181.608 250.297C173.903 250.297 166.63 248.446 160.21 245.164V146.776C160.21 134.958 169.791 125.377 181.609 125.377C193.427 125.377 203.007 134.958 203.007 146.776V245.164Z" fill="#D39993"/>
<ellipse cx="245.225" cy="155.814" rx="17.9283" ry="20.2417" fill="#EBB9B5"/>
<path d="M246.382 145.404C248.888 145.597 254.247 147.37 255.635 152.922" stroke="white" stroke-width="2"/>
<ellipse rx="17.9283" ry="20.2417" transform="matrix(-1 0 0 1 117.992 155.814)" fill="#EBB9B5"/>
<path d="M116.835 145.404C114.329 145.597 108.97 147.37 107.582 152.922" stroke="white" stroke-width="2"/>
<rect x="115.1" y="64.0741" width="133.017" height="174.657" rx="66.5083" fill="#EBB9B5"/>
<path d="M157.897 199.404C161.869 208.926 165.949 211.673 176.404 212.127" stroke="white" stroke-width="2"/>
<path d="M165.571 136.145C156.282 131.654 151.407 132.306 143.282 138.9" stroke="#181D61" stroke-width="2"/>
<path d="M222.982 134.898C213.693 130.408 208.817 131.059 200.693 137.654" stroke="#181D61" stroke-width="2"/>
<path d="M257.37 138.101H247.538C200.521 138.101 162.182 100.944 160.283 54.3931C167.048 52.4128 174.204 51.3506 181.608 51.3506C223.45 51.3506 257.37 85.2703 257.37 127.112V138.101Z" fill="#181D61"/>
<path d="M105.847 138.101H115.678C162.696 138.101 201.034 100.944 202.933 54.3931C196.169 52.4128 189.013 51.3506 181.608 51.3506C139.766 51.3506 105.847 85.2703 105.847 127.112V138.101Z" fill="#181D61"/>
<circle cx="209.368" cy="158.342" r="4.04833" fill="#181D61"/>
<circle cx="155.005" cy="158.342" r="4.04833" fill="#181D61"/>
<rect x="205.32" y="169.331" width="24.29" height="15.0367" rx="7.51833" fill="#D39993"/>
<rect x="134.763" y="169.331" width="24.29" height="15.0367" rx="7.51833" fill="#D39993"/>
<path d="M182.187 163.547C186.659 163.547 190.284 167.172 190.284 171.644C190.284 176.116 186.659 179.741 182.187 179.741V177.427C185.381 177.427 187.97 174.838 187.97 171.644C187.97 168.45 185.381 165.861 182.187 165.861V163.547Z" fill="white"/>
<circle cx="230.767" cy="44.4107" r="40.4833" fill="#181D61"/>
<circle cx="220.935" cy="157.186" r="32.6217" stroke="white" stroke-width="3"/>
<circle cx="146.908" cy="157.186" r="32.6217" stroke="white" stroke-width="3"/>
<rect x="181.03" y="154.294" width="6.94" height="3.47" fill="white"/>
</g>
<defs>
<filter id="filter0_i" x="87" y="272" width="194" height="58" filterUnits="userSpaceOnUse" color-interpolation-filters="sRGB">
<feFlood flood-opacity="0" result="BackgroundImageFix"/>
<feBlend mode="normal" in="SourceGraphic" in2="BackgroundImageFix" result="shape"/>
<feColorMatrix in="SourceAlpha" type="matrix" values="0 0 0 0 0 0 0 0 0 0 0 0 0 0 0 0 0 0 127 0" result="hardAlpha"/>
<feOffset dy="4"/>
<feComposite in2="hardAlpha" operator="arithmetic" k2="-1" k3="1"/>
<feColorMatrix type="matrix" values="0 0 0 0 1 0 0 0 0 1 0 0 0 0 1 0 0 0 1 0"/>
<feBlend mode="normal" in2="shape" result="effect1_innerShadow"/>
</filter>
<clipPath id="clip0">
<rect width="370" height="330" fill="white"/>
</clipPath>
</defs>
</svg>
