<svg width="370" height="330" viewBox="0 0 370 330" fill="none" xmlns="http://www.w3.org/2000/svg">
<g clip-path="url(#clip0)">
<rect x="102.377" y="49.3506" width="158.463" height="181.597" rx="79.2317" fill="#181D61"/>
<path d="M153.333 248C120.012 248 93 271.534 93 300.564V330H274V300.564C274 271.534 246.988 248 213.667 248H153.333Z" fill="#FD634E"/>
<mask id="mask0" mask-type="alpha" maskUnits="userSpaceOnUse" x="11" y="-6" width="347" height="336">
<rect x="11" y="-6" width="347" height="336" fill="#E7FF1C"/>
</mask>
<g mask="url(#mask0)">
<g filter="url(#filter0_i)">
<path d="M87 280C87 274.477 91.4772 270 97 270H271C276.523 270 281 274.477 281 280V360H87V280Z" fill="#D2D4E7"/>
</g>
<path d="M170.224 292.422C171.563 291.084 173.735 291.084 175.075 292.422L186.799 304.128C188.139 305.466 188.139 307.634 186.799 308.972L175.075 320.678C173.735 322.016 171.563 322.016 170.224 320.678C168.884 319.341 168.884 317.172 170.224 315.834L179.522 306.55L170.224 297.266C168.884 295.928 168.884 293.76 170.224 292.422Z" fill="#C5C7DE"/>
<path d="M197.664 292.422C196.324 291.084 194.152 291.084 192.813 292.422L181.089 304.128C179.749 305.466 179.749 307.634 181.089 308.972L192.813 320.678C194.152 322.016 196.324 322.016 197.664 320.678C199.004 319.341 199.004 317.172 197.664 315.834L188.366 306.55L197.664 297.266C199.004 295.928 199.004 293.76 197.664 292.422Z" fill="#BABCD4"/>
<path d="M160 148.5C160 136.626 169.626 127 181.5 127C193.374 127 203 136.626 203 148.5V242.5C203 254.374 193.374 264 181.5 264C169.626 264 160 254.374 160 242.5V148.5Z" fill="#E6B9B6"/>
<path fill-rule="evenodd" clip-rule="evenodd" d="M203.007 243.164C196.587 246.446 189.314 248.297 181.608 248.297C173.903 248.297 166.63 246.446 160.21 243.164V144.776C160.21 132.958 169.791 123.377 181.609 123.377C193.427 123.377 203.007 132.958 203.007 144.776V243.164Z" fill="#D39993"/>
<ellipse cx="245.225" cy="153.814" rx="17.9283" ry="20.2417" fill="#EBB9B5"/>
<path d="M246.382 143.404C248.888 143.597 254.247 145.37 255.635 150.922" stroke="white" stroke-width="2"/>
<ellipse rx="17.9283" ry="20.2417" transform="matrix(-1 0 0 1 117.992 153.814)" fill="#EBB9B5"/>
<path d="M116.835 143.404C114.329 143.597 108.97 145.37 107.582 150.922" stroke="white" stroke-width="2"/>
<rect x="115.1" y="62.0741" width="133.017" height="174.657" rx="66.5083" fill="#EBB9B5"/>
<path d="M157.897 197.404C161.869 206.926 165.949 209.673 176.404 210.127" stroke="white" stroke-width="2"/>
<path d="M165.571 134.145C156.282 129.654 151.407 130.306 143.282 136.9" stroke="#181D61" stroke-width="2"/>
<path d="M222.982 132.898C213.692 128.408 208.817 129.059 200.693 135.654" stroke="#181D61" stroke-width="2"/>
<path d="M257.37 136.101H247.538C200.521 136.101 162.182 98.9441 160.283 52.3931C167.048 50.4128 174.204 49.3506 181.608 49.3506C223.45 49.3506 257.37 83.2703 257.37 125.112V136.101Z" fill="#181D61"/>
<path d="M105.847 136.101H115.678C162.696 136.101 201.035 98.9441 202.933 52.3931C196.169 50.4128 189.013 49.3506 181.608 49.3506C139.766 49.3506 105.847 83.2703 105.847 125.112V136.101Z" fill="#181D61"/>
</g>
<circle cx="209.368" cy="156.342" r="4.04833" fill="#181D61"/>
<circle cx="155.005" cy="156.342" r="4.04833" fill="#181D61"/>
<rect x="205.32" y="167.331" width="24.29" height="15.0367" rx="7.51833" fill="#D39993"/>
<rect x="134.763" y="167.331" width="24.29" height="15.0367" rx="7.51833" fill="#D39993"/>
<path d="M182.187 161.547C186.659 161.547 190.284 165.172 190.284 169.644C190.284 174.116 186.659 177.741 182.187 177.741V175.427C185.381 175.427 187.97 172.838 187.97 169.644C187.97 166.45 185.381 163.861 182.187 163.861V161.547Z" fill="white"/>
<circle cx="230.767" cy="42.4107" r="40.4833" fill="#181D61"/>
<circle cx="220.935" cy="155.186" r="32.6217" stroke="white" stroke-width="3"/>
<circle cx="146.908" cy="155.186" r="32.6217" stroke="white" stroke-width="3"/>
<rect x="181.03" y="152.294" width="6.94" height="3.47" fill="white"/>
</g>
<defs>
<filter id="filter0_i" x="87" y="270" width="194" height="90" filterUnits="userSpaceOnUse" color-interpolation-filters="sRGB">
<feFlood flood-opacity="0" result="BackgroundImageFix"/>
<feBlend mode="normal" in="SourceGraphic" in2="BackgroundImageFix" result="shape"/>
<feColorMatrix in="SourceAlpha" type="matrix" values="0 0 0 0 0 0 0 0 0 0 0 0 0 0 0 0 0 0 127 0" result="hardAlpha"/>
<feOffset dy="4"/>
<feComposite in2="hardAlpha" operator="arithmetic" k2="-1" k3="1"/>
<feColorMatrix type="matrix" values="0 0 0 0 1 0 0 0 0 1 0 0 0 0 1 0 0 0 1 0"/>
<feBlend mode="normal" in2="shape" result="effect1_innerShadow"/>
</filter>
<clipPath id="clip0">
<rect width="370" height="330" fill="white"/>
</clipPath>
</defs>
</svg>
