<svg width="370" height="330" viewBox="0 0 370 330" fill="none" xmlns="http://www.w3.org/2000/svg">
<g clip-path="url(#clip0)">
<path d="M127.833 168.417C127.833 138.455 152.122 114.167 182.083 114.167V114.167C212.045 114.167 236.333 138.455 236.333 168.417V330H127.833V168.417Z" fill="#E6B9B6"/>
<rect x="124.334" y="62.6162" width="115.5" height="187.833" rx="57.75" fill="#D39993"/>
<ellipse cx="240.416" cy="141.366" rx="18.0833" ry="20.4167" fill="#EBB9B5"/>
<path d="M241.583 130.866C244.111 131.061 249.517 132.85 250.917 138.45" stroke="white" stroke-width="2"/>
<ellipse rx="18.0833" ry="20.4167" transform="matrix(-1 0 0 1 123.75 141.366)" fill="#EBB9B5"/>
<path d="M122.583 130.866C120.056 131.061 114.65 132.85 113.25 138.45" stroke="white" stroke-width="2"/>
<rect x="124.334" y="48.6161" width="115.5" height="187.833" rx="57.75" fill="#EBB9B5"/>
<path d="M178.282 278.083L241.583 252.383L243.917 300.833L178.282 288.711L119.667 304.917L122 254.167L178.282 278.083Z" fill="#FD634E"/>
<path d="M239.833 146.297V106.366C239.833 74.4718 213.978 48.6162 182.083 48.6162C150.189 48.6162 124.333 74.4717 124.333 106.366V147.908C126.615 151.297 128.183 152.808 128.237 151.591C118.539 108.588 141.816 92.9216 141.816 92.9216C141.816 92.9216 161.534 113.425 177.376 111.597C160.566 104.929 163.85 101.592 163.85 101.592C163.85 101.592 190.791 103.925 216.812 91.2581C227.8 91.7546 236.853 116.181 239.439 146.6C239.572 146.501 239.704 146.4 239.833 146.297Z" fill="#D39993"/>
<g clip-path="url(#clip1)">
<path d="M256.958 104.415C239.176 25.0782 174.199 38.7487 174.199 38.7487C174.199 38.7487 167.574 36.4098 178.403 31.0767C158.68 25.9124 146.401 44.4145 146.401 44.4145C146.401 44.4145 142.198 44.5783 142.198 36.7475C137.185 37.4079 141.875 51.0734 141.875 51.0734C141.875 51.0734 127.974 51.4111 124.738 49.0822C123.125 54.4103 135.924 53.3378 139.612 54.748C74.6311 59.4108 129.914 151.092 130.237 143.757C120.539 100.755 143.816 85.0882 143.816 85.0882C143.816 85.0882 163.534 105.591 179.376 103.764C162.566 97.0952 165.85 93.7582 165.85 93.7582C165.85 93.7582 192.791 96.0921 218.812 83.4247C229.8 83.9213 238.853 108.347 241.439 138.767C253.645 129.685 250.491 104.424 250.491 104.424C250.491 104.424 259.221 111.754 256.958 104.415Z" fill="#181D61"/>
</g>
<rect x="145" y="123" width="26" height="9" rx="3" fill="#181D61"/>
<rect x="194" y="123" width="26" height="9" rx="3" fill="#181D61"/>
<rect x="204" y="138" width="15" height="8" rx="3" transform="rotate(-90 204 138)" fill="#181D61"/>
<rect x="154" y="138" width="15" height="8" rx="3" transform="rotate(-90 154 138)" fill="#181D61"/>
<path d="M186.75 143.7L189.083 165.866H178.583" stroke="white" stroke-width="2"/>
<path d="M145.559 177.058C145.579 176.686 145.742 176.338 146.014 176.091C146.585 175.59 147.444 175.657 147.935 176.242C153.914 183.37 158.142 179.941 162.825 176.131C166.373 173.24 170.146 170.167 175.122 170.167C176.793 170.157 178.446 170.52 179.967 171.228C180.955 171.696 181.863 172.321 182.66 173.082C183.456 172.324 184.365 171.701 185.352 171.236C186.873 170.528 188.526 170.165 190.197 170.175C195.196 170.175 199.632 173.28 203.721 176.139C205.071 177.089 206.391 178.008 207.64 178.745C211.205 180.843 214.399 181.469 217.215 176.503C217.566 175.823 218.388 175.565 219.051 175.926C219.439 176.138 219.704 176.53 219.761 176.978C220.127 179.435 220.073 181.939 219.599 184.376C219.052 187.236 217.505 189.792 215.247 191.56C213.037 193.176 210.456 194.175 207.756 194.458C203.707 194.903 199.613 194.635 195.651 193.666C192.695 193.041 189.838 191.993 187.165 190.554C185.488 189.639 183.967 188.451 182.66 187.037C181.355 188.439 179.839 189.615 178.169 190.522C175.496 191.962 172.64 193.009 169.683 193.635C165.721 194.603 161.628 194.871 157.578 194.427C154.879 194.143 152.298 193.144 150.087 191.528C147.827 189.763 146.279 187.206 145.736 184.344C145.267 181.944 145.208 179.479 145.559 177.058Z" fill="#181D61"/>
<rect x="175.666" y="285.667" width="8.16667" height="44.3333" fill="#FD634E"/>
<path d="M236.3 240L284.318 276.944C285.294 277.726 287.715 279.877 289.588 282.222C290.153 282.929 293.986 284.727 299.601 287.361C317.275 295.651 352.607 312.225 359.273 329.136V330H213L236.3 240Z" fill="#181D61"/>
<path d="M127.973 240L79.9553 276.944C78.9793 277.726 76.5589 279.877 74.685 282.222C74.1203 282.929 70.2876 284.727 64.6725 287.361C46.9987 295.651 11.6663 312.225 5.00032 329.136V330H151.273L127.973 240Z" fill="#181D61"/>
<path d="M222.5 295.5L192.5 284L178 282L142.5 295.5L151 330H213L222.5 295.5Z" fill="white"/>
<path d="M195.5 276.167H164V299.684C164 304.183 167.507 308.091 171.19 310.069L169.5 330H190L188.893 310.282C192.803 308.382 195.5 304.35 195.5 299.684V276.167Z" fill="#FD634E"/>
<path opacity="0.3" d="M275.789 279.831L242.022 284.333L262.439 310.583L240.272 350.833H252.522L270.606 310L251.356 287.833L275.958 280.005C275.902 279.947 275.845 279.889 275.789 279.831Z" fill="white"/>
<path opacity="0.3" d="M88.4837 279.831L122.25 284.333L101.834 310.583L124 350.833H111.75L93.6669 310L112.917 287.833L88.3144 280.005C88.371 279.947 88.4274 279.889 88.4837 279.831Z" fill="white"/>
<path d="M179.75 275L236.333 240L228.75 289L179.75 279.667L132.5 290.75L127.833 242.917L179.75 275Z" fill="white"/>
</g>
<defs>
<clipPath id="clip0">
<rect width="370" height="330" fill="white"/>
</clipPath>
<clipPath id="clip1">
<rect x="108" y="26.6667" width="149.333" height="154" fill="white"/>
</clipPath>
</defs>
</svg>
